<svg width="18" height="23" viewBox="0 0 18 23" fill="none" xmlns="http://www.w3.org/2000/svg">
<path d="M12.1859 22.27C11.3459 22.27 10.6859 22.04 10.2059 21.58C9.74586 21.12 9.51586 20.44 9.51586 19.54V18.46H3.48586C2.60586 18.46 1.91586 18.26 1.41586 17.86C0.935859 17.46 0.695859 16.85 0.695859 16.03C0.695859 15.55 0.785859 15.09 0.965859 14.65C1.14586 14.19 1.46586 13.64 1.92586 13L9.24586 2.32C9.64586 1.72 10.0959 1.28 10.5959 0.999999C11.0959 0.719999 11.6859 0.579999 12.3659 0.579999C13.1259 0.579999 13.7259 0.809999 14.1659 1.27C14.6059 1.71 14.8259 2.39 14.8259 3.31V14.29H15.5459C16.3059 14.29 16.8759 14.47 17.2559 14.83C17.6559 15.19 17.8559 15.7 17.8559 16.36C17.8559 17.04 17.6559 17.56 17.2559 17.92C16.8759 18.28 16.3059 18.46 15.5459 18.46H14.8259V19.54C14.8259 20.42 14.5959 21.1 14.1359 21.58C13.6959 22.04 13.0459 22.27 12.1859 22.27ZM9.51586 14.29V7.21H10.3559L4.71586 15.58V14.29H9.51586Z" fill="#4FB607"/>
</svg>
