<svg width="917" height="76" viewBox="0 0 917 76" fill="none" xmlns="http://www.w3.org/2000/svg">
<rect width="917" height="76" rx="10" fill="#49BFF7"/>
<path d="M335.5 46.275C333.55 46.275 331.875 45.9 330.475 45.15C329.075 44.4 328 43.3417 327.25 41.975C326.517 40.6083 326.15 39.0083 326.15 37.175C326.15 35.8083 326.358 34.5667 326.775 33.45C327.208 32.3333 327.825 31.375 328.625 30.575C329.442 29.775 330.425 29.1667 331.575 28.75C332.742 28.3167 334.05 28.1 335.5 28.1C336.267 28.1 337.058 28.1917 337.875 28.375C338.708 28.5417 339.442 28.8 340.075 29.15C340.542 29.4 340.867 29.7167 341.05 30.1C341.233 30.4833 341.292 30.875 341.225 31.275C341.175 31.675 341.033 32.0333 340.8 32.35C340.567 32.6667 340.267 32.8833 339.9 33C339.533 33.1 339.133 33.0417 338.7 32.825C338.2 32.5917 337.7 32.4167 337.2 32.3C336.717 32.1667 336.208 32.1 335.675 32.1C334.642 32.1 333.775 32.3 333.075 32.7C332.392 33.0833 331.875 33.65 331.525 34.4C331.175 35.15 331 36.075 331 37.175C331 38.275 331.175 39.2083 331.525 39.975C331.875 40.725 332.392 41.3 333.075 41.7C333.775 42.0833 334.642 42.275 335.675 42.275C336.108 42.275 336.575 42.225 337.075 42.125C337.575 42.0083 338.067 41.8333 338.55 41.6C339.05 41.3833 339.492 41.325 339.875 41.425C340.275 41.525 340.592 41.725 340.825 42.025C341.075 42.325 341.233 42.675 341.3 43.075C341.367 43.4583 341.308 43.8417 341.125 44.225C340.958 44.6083 340.658 44.9167 340.225 45.15C339.642 45.5 338.917 45.775 338.05 45.975C337.2 46.175 336.35 46.275 335.5 46.275ZM346.112 46.225C345.379 46.225 344.812 46.025 344.412 45.625C344.012 45.2083 343.812 44.625 343.812 43.875V30.5C343.812 29.7333 344.012 29.15 344.412 28.75C344.812 28.35 345.379 28.15 346.112 28.15C346.862 28.15 347.429 28.35 347.812 28.75C348.212 29.15 348.412 29.7333 348.412 30.5V35.175H355.687V30.5C355.687 29.7333 355.879 29.15 356.262 28.75C356.662 28.35 357.237 28.15 357.987 28.15C358.72 28.15 359.279 28.35 359.662 28.75C360.062 29.15 360.262 29.7333 360.262 30.5V43.875C360.262 44.625 360.062 45.2083 359.662 45.625C359.279 46.025 358.72 46.225 357.987 46.225C357.237 46.225 356.662 46.025 356.262 45.625C355.879 45.2083 355.687 44.625 355.687 43.875V38.95H348.412V43.875C348.412 44.625 348.22 45.2083 347.837 45.625C347.454 46.025 346.879 46.225 346.112 46.225ZM364.29 46.225C363.774 46.225 363.34 46.1083 362.99 45.875C362.64 45.625 362.424 45.2917 362.34 44.875C362.257 44.4417 362.332 43.9583 362.565 43.425L368.79 30.025C369.09 29.375 369.457 28.9 369.89 28.6C370.34 28.3 370.849 28.15 371.415 28.15C371.982 28.15 372.474 28.3 372.89 28.6C373.324 28.9 373.699 29.375 374.015 30.025L380.24 43.425C380.507 43.9583 380.599 44.4417 380.515 44.875C380.449 45.3083 380.24 45.6417 379.89 45.875C379.557 46.1083 379.14 46.225 378.64 46.225C377.974 46.225 377.457 46.075 377.09 45.775C376.74 45.475 376.424 44.9917 376.14 44.325L374.79 41.15L376.54 42.425H366.24L368.015 41.15L366.665 44.325C366.365 44.9917 366.057 45.475 365.74 45.775C365.424 46.075 364.94 46.225 364.29 46.225ZM371.365 33.175L368.465 40.1L367.765 38.9H375.04L374.34 40.1L371.415 33.175H371.365ZM384.683 46.225C383.983 46.225 383.449 46.0417 383.083 45.675C382.716 45.3083 382.533 44.7667 382.533 44.05V30.425C382.533 29.6917 382.716 29.1333 383.083 28.75C383.449 28.35 383.933 28.15 384.533 28.15C385.066 28.15 385.483 28.25 385.783 28.45C386.083 28.65 386.416 28.9833 386.783 29.45L394.708 39.35H394.008V30.3C394.008 29.6 394.183 29.0667 394.533 28.7C394.899 28.3333 395.433 28.15 396.133 28.15C396.833 28.15 397.358 28.3333 397.708 28.7C398.074 29.0667 398.258 29.6 398.258 30.3V44.15C398.258 44.7833 398.091 45.2917 397.758 45.675C397.424 46.0417 396.974 46.225 396.408 46.225C395.841 46.225 395.391 46.125 395.058 45.925C394.741 45.7083 394.399 45.375 394.033 44.925L386.108 35H386.808V44.05C386.808 44.7667 386.624 45.3083 386.258 45.675C385.908 46.0417 385.383 46.225 384.683 46.225ZM410.478 46.275C408.461 46.275 406.745 45.9 405.328 45.15C403.928 44.4 402.861 43.35 402.128 42C401.395 40.65 401.028 39.075 401.028 37.275C401.028 35.875 401.245 34.6167 401.678 33.5C402.128 32.3667 402.77 31.4 403.603 30.6C404.436 29.7833 405.453 29.1667 406.653 28.75C407.87 28.3167 409.245 28.1 410.778 28.1C411.611 28.1 412.461 28.1833 413.328 28.35C414.195 28.5 415.045 28.7917 415.878 29.225C416.311 29.425 416.603 29.7083 416.753 30.075C416.92 30.425 416.97 30.8 416.903 31.2C416.853 31.5833 416.711 31.9417 416.478 32.275C416.261 32.5917 415.961 32.8083 415.578 32.925C415.195 33.025 414.761 32.9667 414.278 32.75C413.778 32.5167 413.236 32.3417 412.653 32.225C412.07 32.0917 411.453 32.025 410.803 32.025C409.686 32.025 408.753 32.225 408.003 32.625C407.27 33.025 406.72 33.6167 406.353 34.4C405.986 35.1833 405.803 36.1417 405.803 37.275C405.803 38.975 406.22 40.2583 407.053 41.125C407.886 41.9917 409.12 42.425 410.753 42.425C411.253 42.425 411.795 42.375 412.378 42.275C412.978 42.175 413.578 42.0333 414.178 41.85L413.328 43.575V39.3H411.578C411.011 39.3 410.57 39.1583 410.253 38.875C409.953 38.5917 409.803 38.1917 409.803 37.675C409.803 37.1583 409.953 36.7667 410.253 36.5C410.57 36.2167 411.011 36.075 411.578 36.075H415.278C415.861 36.075 416.303 36.2333 416.603 36.55C416.92 36.85 417.078 37.2917 417.078 37.875V43.4C417.078 43.9 416.97 44.325 416.753 44.675C416.553 45.025 416.228 45.275 415.778 45.425C414.995 45.6917 414.145 45.9 413.228 46.05C412.311 46.2 411.395 46.275 410.478 46.275ZM422.555 46C421.771 46 421.171 45.8 420.755 45.4C420.355 44.9833 420.155 44.3917 420.155 43.625V30.75C420.155 29.9833 420.355 29.4 420.755 29C421.171 28.5833 421.771 28.375 422.555 28.375H431.03C431.63 28.375 432.08 28.525 432.38 28.825C432.68 29.125 432.83 29.5583 432.83 30.125C432.83 30.7083 432.68 31.1583 432.38 31.475C432.08 31.775 431.63 31.925 431.03 31.925H424.555V35.275H430.48C431.063 35.275 431.505 35.425 431.805 35.725C432.121 36.025 432.28 36.4667 432.28 37.05C432.28 37.6333 432.121 38.075 431.805 38.375C431.505 38.675 431.063 38.825 430.48 38.825H424.555V42.45H431.03C431.63 42.45 432.08 42.6083 432.38 42.925C432.68 43.225 432.83 43.6583 432.83 44.225C432.83 44.8083 432.68 45.25 432.38 45.55C432.08 45.85 431.63 46 431.03 46H422.555ZM444.964 46.225C444.231 46.225 443.664 46.025 443.264 45.625C442.864 45.2083 442.664 44.6333 442.664 43.9V30.7C442.664 29.95 442.864 29.375 443.264 28.975C443.681 28.575 444.256 28.375 444.989 28.375H451.139C453.139 28.375 454.681 28.8917 455.764 29.925C456.864 30.9417 457.414 32.35 457.414 34.15C457.414 35.95 456.864 37.3667 455.764 38.4C454.681 39.4167 453.139 39.925 451.139 39.925H447.264V43.9C447.264 44.6333 447.073 45.2083 446.689 45.625C446.306 46.025 445.731 46.225 444.964 46.225ZM447.264 36.4H450.339C451.206 36.4 451.873 36.2167 452.339 35.85C452.806 35.4667 453.039 34.9 453.039 34.15C453.039 33.3833 452.806 32.8167 452.339 32.45C451.873 32.0833 451.206 31.9 450.339 31.9H447.264V36.4ZM458.529 46.225C458.012 46.225 457.579 46.1083 457.229 45.875C456.879 45.625 456.662 45.2917 456.579 44.875C456.495 44.4417 456.57 43.9583 456.804 43.425L463.029 30.025C463.329 29.375 463.695 28.9 464.129 28.6C464.579 28.3 465.087 28.15 465.654 28.15C466.22 28.15 466.712 28.3 467.129 28.6C467.562 28.9 467.937 29.375 468.254 30.025L474.479 43.425C474.745 43.9583 474.837 44.4417 474.754 44.875C474.687 45.3083 474.479 45.6417 474.129 45.875C473.795 46.1083 473.379 46.225 472.879 46.225C472.212 46.225 471.695 46.075 471.329 45.775C470.979 45.475 470.662 44.9917 470.379 44.325L469.029 41.15L470.779 42.425H460.479L462.254 41.15L460.904 44.325C460.604 44.9917 460.295 45.475 459.979 45.775C459.662 46.075 459.179 46.225 458.529 46.225ZM465.604 33.175L462.704 40.1L462.004 38.9H469.279L468.579 40.1L465.654 33.175H465.604ZM483.101 46.275C482.435 46.275 481.735 46.225 481.001 46.125C480.285 46.0417 479.601 45.9083 478.951 45.725C478.301 45.5417 477.718 45.325 477.201 45.075C476.751 44.8583 476.435 44.575 476.251 44.225C476.068 43.8583 476.001 43.475 476.051 43.075C476.101 42.675 476.243 42.325 476.476 42.025C476.71 41.7083 477.018 41.5 477.401 41.4C477.785 41.2833 478.218 41.3333 478.701 41.55C479.335 41.85 480.051 42.0833 480.851 42.25C481.651 42.4167 482.401 42.5 483.101 42.5C484.201 42.5 484.968 42.3583 485.401 42.075C485.851 41.775 486.076 41.4083 486.076 40.975C486.076 40.5917 485.918 40.2833 485.601 40.05C485.301 39.8167 484.76 39.6167 483.976 39.45L481.051 38.825C479.451 38.4917 478.26 37.9083 477.476 37.075C476.693 36.2417 476.301 35.1667 476.301 33.85C476.301 32.9833 476.476 32.2 476.826 31.5C477.193 30.7833 477.701 30.175 478.351 29.675C479.018 29.175 479.801 28.7917 480.701 28.525C481.618 28.2417 482.635 28.1 483.751 28.1C484.618 28.1 485.493 28.2 486.376 28.4C487.276 28.5833 488.051 28.8667 488.701 29.25C489.085 29.45 489.36 29.725 489.526 30.075C489.693 30.425 489.76 30.7917 489.726 31.175C489.693 31.5417 489.56 31.8667 489.326 32.15C489.11 32.4333 488.81 32.625 488.426 32.725C488.06 32.8083 487.618 32.7417 487.101 32.525C486.618 32.3083 486.068 32.15 485.451 32.05C484.851 31.9333 484.268 31.875 483.701 31.875C483.085 31.875 482.56 31.95 482.126 32.1C481.693 32.2333 481.36 32.4333 481.126 32.7C480.91 32.9667 480.801 33.275 480.801 33.625C480.801 33.975 480.943 34.275 481.226 34.525C481.526 34.7583 482.068 34.9583 482.851 35.125L485.751 35.75C487.368 36.1 488.576 36.675 489.376 37.475C490.176 38.275 490.576 39.3167 490.576 40.6C490.576 41.4667 490.401 42.25 490.051 42.95C489.701 43.65 489.201 44.25 488.551 44.75C487.901 45.2333 487.118 45.6083 486.201 45.875C485.285 46.1417 484.251 46.275 483.101 46.275ZM499.385 46.275C498.719 46.275 498.019 46.225 497.285 46.125C496.569 46.0417 495.885 45.9083 495.235 45.725C494.585 45.5417 494.002 45.325 493.485 45.075C493.035 44.8583 492.719 44.575 492.535 44.225C492.352 43.8583 492.285 43.475 492.335 43.075C492.385 42.675 492.527 42.325 492.76 42.025C492.994 41.7083 493.302 41.5 493.685 41.4C494.069 41.2833 494.502 41.3333 494.985 41.55C495.619 41.85 496.335 42.0833 497.135 42.25C497.935 42.4167 498.685 42.5 499.385 42.5C500.485 42.5 501.252 42.3583 501.685 42.075C502.135 41.775 502.36 41.4083 502.36 40.975C502.36 40.5917 502.202 40.2833 501.885 40.05C501.585 39.8167 501.044 39.6167 500.26 39.45L497.335 38.825C495.735 38.4917 494.544 37.9083 493.76 37.075C492.977 36.2417 492.585 35.1667 492.585 33.85C492.585 32.9833 492.76 32.2 493.11 31.5C493.477 30.7833 493.985 30.175 494.635 29.675C495.302 29.175 496.085 28.7917 496.985 28.525C497.902 28.2417 498.919 28.1 500.035 28.1C500.902 28.1 501.777 28.2 502.66 28.4C503.56 28.5833 504.335 28.8667 504.985 29.25C505.369 29.45 505.644 29.725 505.81 30.075C505.977 30.425 506.044 30.7917 506.01 31.175C505.977 31.5417 505.844 31.8667 505.61 32.15C505.394 32.4333 505.094 32.625 504.71 32.725C504.344 32.8083 503.902 32.7417 503.385 32.525C502.902 32.3083 502.352 32.15 501.735 32.05C501.135 31.9333 500.552 31.875 499.985 31.875C499.369 31.875 498.844 31.95 498.41 32.1C497.977 32.2333 497.644 32.4333 497.41 32.7C497.194 32.9667 497.085 33.275 497.085 33.625C497.085 33.975 497.227 34.275 497.51 34.525C497.81 34.7583 498.352 34.9583 499.135 35.125L502.035 35.75C503.652 36.1 504.86 36.675 505.66 37.475C506.46 38.275 506.86 39.3167 506.86 40.6C506.86 41.4667 506.685 42.25 506.335 42.95C505.985 43.65 505.485 44.25 504.835 44.75C504.185 45.2333 503.402 45.6083 502.485 45.875C501.569 46.1417 500.535 46.275 499.385 46.275ZM515.628 46.225C515.011 46.225 514.511 46.0833 514.128 45.8C513.744 45.5 513.444 45.0417 513.228 44.425L508.353 30.85C508.086 30.1 508.128 29.4667 508.478 28.95C508.844 28.4167 509.486 28.15 510.403 28.15C511.019 28.15 511.503 28.3 511.853 28.6C512.203 28.8833 512.478 29.3333 512.678 29.95L516.403 41.125H515.228L519.228 29.95C519.461 29.3333 519.753 28.8833 520.103 28.6C520.453 28.3 520.903 28.15 521.453 28.15C522.003 28.15 522.444 28.3 522.778 28.6C523.111 28.8833 523.386 29.3417 523.603 29.975L527.353 41.125H526.353L530.178 29.95C530.378 29.3333 530.644 28.8833 530.978 28.6C531.328 28.3 531.811 28.15 532.428 28.15C533.194 28.15 533.753 28.4167 534.103 28.95C534.469 29.4667 534.511 30.1 534.228 30.85L529.303 44.45C529.086 45.05 528.786 45.5 528.403 45.8C528.036 46.0833 527.544 46.225 526.928 46.225C526.294 46.225 525.786 46.0833 525.403 45.8C525.036 45.5 524.744 45.0417 524.528 44.425L521.003 34.525H521.628L518.028 44.45C517.794 45.05 517.494 45.5 517.128 45.8C516.761 46.0833 516.261 46.225 515.628 46.225ZM545.012 46.275C543.229 46.275 541.662 45.9 540.312 45.15C538.962 44.3833 537.912 43.3167 537.162 41.95C536.429 40.5833 536.062 38.9917 536.062 37.175C536.062 35.8083 536.27 34.5667 536.687 33.45C537.12 32.3333 537.729 31.375 538.512 30.575C539.312 29.775 540.262 29.1667 541.362 28.75C542.462 28.3167 543.679 28.1 545.012 28.1C546.795 28.1 548.354 28.475 549.687 29.225C551.037 29.975 552.087 31.0333 552.837 32.4C553.587 33.75 553.962 35.3417 553.962 37.175C553.962 38.5417 553.745 39.7833 553.312 40.9C552.895 42.0167 552.287 42.9833 551.487 43.8C550.704 44.6 549.762 45.2167 548.662 45.65C547.562 46.0667 546.345 46.275 545.012 46.275ZM545.012 42.425C545.895 42.425 546.645 42.2167 547.262 41.8C547.879 41.3833 548.354 40.7833 548.687 40C549.02 39.2167 549.187 38.275 549.187 37.175C549.187 35.525 548.82 34.2417 548.087 33.325C547.354 32.4083 546.329 31.95 545.012 31.95C544.145 31.95 543.395 32.1583 542.762 32.575C542.145 32.975 541.67 33.5667 541.337 34.35C541.004 35.1167 540.837 36.0583 540.837 37.175C540.837 38.825 541.204 40.1167 541.937 41.05C542.67 41.9667 543.695 42.425 545.012 42.425ZM558.978 46.225C558.245 46.225 557.678 46.025 557.278 45.625C556.878 45.2083 556.678 44.6333 556.678 43.9V30.7C556.678 29.95 556.878 29.375 557.278 28.975C557.695 28.575 558.27 28.375 559.003 28.375H565.153C567.153 28.375 568.695 28.8667 569.778 29.85C570.878 30.8167 571.428 32.1667 571.428 33.9C571.428 35.0167 571.178 35.9917 570.678 36.825C570.195 37.6417 569.486 38.275 568.553 38.725C567.636 39.1583 566.503 39.375 565.153 39.375L565.353 38.925H566.553C567.27 38.925 567.903 39.1 568.453 39.45C569.003 39.7833 569.461 40.3 569.828 41L571.078 43.25C571.345 43.7333 571.47 44.2083 571.453 44.675C571.436 45.125 571.253 45.5 570.903 45.8C570.57 46.0833 570.078 46.225 569.428 46.225C568.778 46.225 568.245 46.0917 567.828 45.825C567.428 45.5583 567.07 45.1417 566.753 44.575L564.478 40.4C564.278 40.0333 564.02 39.7833 563.703 39.65C563.403 39.5 563.053 39.425 562.653 39.425H561.278V43.9C561.278 44.6333 561.086 45.2083 560.703 45.625C560.32 46.025 559.745 46.225 558.978 46.225ZM561.278 36.175H564.328C565.211 36.175 565.886 36 566.353 35.65C566.82 35.3 567.053 34.7583 567.053 34.025C567.053 33.325 566.82 32.8 566.353 32.45C565.886 32.0833 565.211 31.9 564.328 31.9H561.278V36.175ZM576.729 46C575.946 46 575.346 45.8 574.929 45.4C574.529 44.9833 574.329 44.3917 574.329 43.625V30.75C574.329 29.9833 574.529 29.4 574.929 29C575.346 28.5833 575.946 28.375 576.729 28.375H581.629C584.696 28.375 587.063 29.1417 588.729 30.675C590.413 32.2083 591.254 34.375 591.254 37.175C591.254 38.575 591.038 39.825 590.604 40.925C590.171 42.0083 589.546 42.9333 588.729 43.7C587.913 44.45 586.904 45.025 585.704 45.425C584.521 45.8083 583.163 46 581.629 46H576.729ZM578.929 42.275H581.329C582.213 42.275 582.971 42.1667 583.604 41.95C584.254 41.7333 584.788 41.4167 585.204 41C585.638 40.5833 585.954 40.0583 586.154 39.425C586.371 38.7917 586.479 38.0417 586.479 37.175C586.479 35.4417 586.054 34.1667 585.204 33.35C584.354 32.5167 583.063 32.1 581.329 32.1H578.929V42.275Z" fill="#202F35"/>
</svg>
