<svg width="917" height="76" viewBox="0 0 917 76" fill="none" xmlns="http://www.w3.org/2000/svg">
<rect width="917" height="76" rx="10" fill="#49BFF7"/>
<path d="M338.5 46.275C336.55 46.275 334.875 45.9 333.475 45.15C332.075 44.4 331 43.3417 330.25 41.975C329.517 40.6083 329.15 39.0083 329.15 37.175C329.15 35.8083 329.358 34.5667 329.775 33.45C330.208 32.3333 330.825 31.375 331.625 30.575C332.442 29.775 333.425 29.1667 334.575 28.75C335.742 28.3167 337.05 28.1 338.5 28.1C339.267 28.1 340.058 28.1917 340.875 28.375C341.708 28.5417 342.442 28.8 343.075 29.15C343.542 29.4 343.867 29.7167 344.05 30.1C344.233 30.4833 344.292 30.875 344.225 31.275C344.175 31.675 344.033 32.0333 343.8 32.35C343.567 32.6667 343.267 32.8833 342.9 33C342.533 33.1 342.133 33.0417 341.7 32.825C341.2 32.5917 340.7 32.4167 340.2 32.3C339.717 32.1667 339.208 32.1 338.675 32.1C337.642 32.1 336.775 32.3 336.075 32.7C335.392 33.0833 334.875 33.65 334.525 34.4C334.175 35.15 334 36.075 334 37.175C334 38.275 334.175 39.2083 334.525 39.975C334.875 40.725 335.392 41.3 336.075 41.7C336.775 42.0833 337.642 42.275 338.675 42.275C339.108 42.275 339.575 42.225 340.075 42.125C340.575 42.0083 341.067 41.8333 341.55 41.6C342.05 41.3833 342.492 41.325 342.875 41.425C343.275 41.525 343.592 41.725 343.825 42.025C344.075 42.325 344.233 42.675 344.3 43.075C344.367 43.4583 344.308 43.8417 344.125 44.225C343.958 44.6083 343.658 44.9167 343.225 45.15C342.642 45.5 341.917 45.775 341.05 45.975C340.2 46.175 339.35 46.275 338.5 46.275ZM349.112 46.225C348.379 46.225 347.812 46.025 347.412 45.625C347.012 45.2083 346.812 44.625 346.812 43.875V30.5C346.812 29.7333 347.012 29.15 347.412 28.75C347.812 28.35 348.379 28.15 349.112 28.15C349.862 28.15 350.429 28.35 350.812 28.75C351.212 29.15 351.412 29.7333 351.412 30.5V35.175H358.687V30.5C358.687 29.7333 358.879 29.15 359.262 28.75C359.662 28.35 360.237 28.15 360.987 28.15C361.72 28.15 362.279 28.35 362.662 28.75C363.062 29.15 363.262 29.7333 363.262 30.5V43.875C363.262 44.625 363.062 45.2083 362.662 45.625C362.279 46.025 361.72 46.225 360.987 46.225C360.237 46.225 359.662 46.025 359.262 45.625C358.879 45.2083 358.687 44.625 358.687 43.875V38.95H351.412V43.875C351.412 44.625 351.22 45.2083 350.837 45.625C350.454 46.025 349.879 46.225 349.112 46.225ZM367.29 46.225C366.774 46.225 366.34 46.1083 365.99 45.875C365.64 45.625 365.424 45.2917 365.34 44.875C365.257 44.4417 365.332 43.9583 365.565 43.425L371.79 30.025C372.09 29.375 372.457 28.9 372.89 28.6C373.34 28.3 373.849 28.15 374.415 28.15C374.982 28.15 375.474 28.3 375.89 28.6C376.324 28.9 376.699 29.375 377.015 30.025L383.24 43.425C383.507 43.9583 383.599 44.4417 383.515 44.875C383.449 45.3083 383.24 45.6417 382.89 45.875C382.557 46.1083 382.14 46.225 381.64 46.225C380.974 46.225 380.457 46.075 380.09 45.775C379.74 45.475 379.424 44.9917 379.14 44.325L377.79 41.15L379.54 42.425H369.24L371.015 41.15L369.665 44.325C369.365 44.9917 369.057 45.475 368.74 45.775C368.424 46.075 367.94 46.225 367.29 46.225ZM374.365 33.175L371.465 40.1L370.765 38.9H378.04L377.34 40.1L374.415 33.175H374.365ZM387.683 46.225C386.983 46.225 386.449 46.0417 386.083 45.675C385.716 45.3083 385.533 44.7667 385.533 44.05V30.425C385.533 29.6917 385.716 29.1333 386.083 28.75C386.449 28.35 386.933 28.15 387.533 28.15C388.066 28.15 388.483 28.25 388.783 28.45C389.083 28.65 389.416 28.9833 389.783 29.45L397.708 39.35H397.008V30.3C397.008 29.6 397.183 29.0667 397.533 28.7C397.899 28.3333 398.433 28.15 399.133 28.15C399.833 28.15 400.358 28.3333 400.708 28.7C401.074 29.0667 401.258 29.6 401.258 30.3V44.15C401.258 44.7833 401.091 45.2917 400.758 45.675C400.424 46.0417 399.974 46.225 399.408 46.225C398.841 46.225 398.391 46.125 398.058 45.925C397.741 45.7083 397.399 45.375 397.033 44.925L389.108 35H389.808V44.05C389.808 44.7667 389.624 45.3083 389.258 45.675C388.908 46.0417 388.383 46.225 387.683 46.225ZM413.478 46.275C411.461 46.275 409.745 45.9 408.328 45.15C406.928 44.4 405.861 43.35 405.128 42C404.395 40.65 404.028 39.075 404.028 37.275C404.028 35.875 404.245 34.6167 404.678 33.5C405.128 32.3667 405.77 31.4 406.603 30.6C407.436 29.7833 408.453 29.1667 409.653 28.75C410.87 28.3167 412.245 28.1 413.778 28.1C414.611 28.1 415.461 28.1833 416.328 28.35C417.195 28.5 418.045 28.7917 418.878 29.225C419.311 29.425 419.603 29.7083 419.753 30.075C419.92 30.425 419.97 30.8 419.903 31.2C419.853 31.5833 419.711 31.9417 419.478 32.275C419.261 32.5917 418.961 32.8083 418.578 32.925C418.195 33.025 417.761 32.9667 417.278 32.75C416.778 32.5167 416.236 32.3417 415.653 32.225C415.07 32.0917 414.453 32.025 413.803 32.025C412.686 32.025 411.753 32.225 411.003 32.625C410.27 33.025 409.72 33.6167 409.353 34.4C408.986 35.1833 408.803 36.1417 408.803 37.275C408.803 38.975 409.22 40.2583 410.053 41.125C410.886 41.9917 412.12 42.425 413.753 42.425C414.253 42.425 414.795 42.375 415.378 42.275C415.978 42.175 416.578 42.0333 417.178 41.85L416.328 43.575V39.3H414.578C414.011 39.3 413.57 39.1583 413.253 38.875C412.953 38.5917 412.803 38.1917 412.803 37.675C412.803 37.1583 412.953 36.7667 413.253 36.5C413.57 36.2167 414.011 36.075 414.578 36.075H418.278C418.861 36.075 419.303 36.2333 419.603 36.55C419.92 36.85 420.078 37.2917 420.078 37.875V43.4C420.078 43.9 419.97 44.325 419.753 44.675C419.553 45.025 419.228 45.275 418.778 45.425C417.995 45.6917 417.145 45.9 416.228 46.05C415.311 46.2 414.395 46.275 413.478 46.275ZM425.555 46C424.771 46 424.171 45.8 423.755 45.4C423.355 44.9833 423.155 44.3917 423.155 43.625V30.75C423.155 29.9833 423.355 29.4 423.755 29C424.171 28.5833 424.771 28.375 425.555 28.375H434.03C434.63 28.375 435.08 28.525 435.38 28.825C435.68 29.125 435.83 29.5583 435.83 30.125C435.83 30.7083 435.68 31.1583 435.38 31.475C435.08 31.775 434.63 31.925 434.03 31.925H427.555V35.275H433.48C434.063 35.275 434.505 35.425 434.805 35.725C435.121 36.025 435.28 36.4667 435.28 37.05C435.28 37.6333 435.121 38.075 434.805 38.375C434.505 38.675 434.063 38.825 433.48 38.825H427.555V42.45H434.03C434.63 42.45 435.08 42.6083 435.38 42.925C435.68 43.225 435.83 43.6583 435.83 44.225C435.83 44.8083 435.68 45.25 435.38 45.55C435.08 45.85 434.63 46 434.03 46H425.555ZM453.464 46.275C452.181 46.275 451.048 46.1167 450.064 45.8C449.081 45.4667 448.248 44.975 447.564 44.325C446.898 43.675 446.389 42.8667 446.039 41.9C445.706 40.9167 445.539 39.7833 445.539 38.5V30.475C445.539 29.7083 445.739 29.1333 446.139 28.75C446.539 28.35 447.106 28.15 447.839 28.15C448.589 28.15 449.156 28.35 449.539 28.75C449.939 29.1333 450.139 29.7083 450.139 30.475V38.55C450.139 39.8333 450.423 40.8 450.989 41.45C451.556 42.1 452.381 42.425 453.464 42.425C454.531 42.425 455.348 42.1 455.914 41.45C456.481 40.8 456.764 39.8333 456.764 38.55V30.475C456.764 29.7083 456.956 29.1333 457.339 28.75C457.739 28.35 458.306 28.15 459.039 28.15C459.773 28.15 460.331 28.35 460.714 28.75C461.098 29.1333 461.289 29.7083 461.289 30.475V38.5C461.289 40.2167 460.989 41.6583 460.389 42.825C459.806 43.975 458.931 44.8417 457.764 45.425C456.598 45.9917 455.164 46.275 453.464 46.275ZM470.916 46.275C470.249 46.275 469.549 46.225 468.816 46.125C468.099 46.0417 467.416 45.9083 466.766 45.725C466.116 45.5417 465.532 45.325 465.016 45.075C464.566 44.8583 464.249 44.575 464.066 44.225C463.882 43.8583 463.816 43.475 463.866 43.075C463.916 42.675 464.057 42.325 464.291 42.025C464.524 41.7083 464.832 41.5 465.216 41.4C465.599 41.2833 466.032 41.3333 466.516 41.55C467.149 41.85 467.866 42.0833 468.666 42.25C469.466 42.4167 470.216 42.5 470.916 42.5C472.016 42.5 472.782 42.3583 473.216 42.075C473.666 41.775 473.891 41.4083 473.891 40.975C473.891 40.5917 473.732 40.2833 473.416 40.05C473.116 39.8167 472.574 39.6167 471.791 39.45L468.866 38.825C467.266 38.4917 466.074 37.9083 465.291 37.075C464.507 36.2417 464.116 35.1667 464.116 33.85C464.116 32.9833 464.291 32.2 464.641 31.5C465.007 30.7833 465.516 30.175 466.166 29.675C466.832 29.175 467.616 28.7917 468.516 28.525C469.432 28.2417 470.449 28.1 471.566 28.1C472.432 28.1 473.307 28.2 474.191 28.4C475.091 28.5833 475.866 28.8667 476.516 29.25C476.899 29.45 477.174 29.725 477.341 30.075C477.507 30.425 477.574 30.7917 477.541 31.175C477.507 31.5417 477.374 31.8667 477.141 32.15C476.924 32.4333 476.624 32.625 476.241 32.725C475.874 32.8083 475.432 32.7417 474.916 32.525C474.432 32.3083 473.882 32.15 473.266 32.05C472.666 31.9333 472.082 31.875 471.516 31.875C470.899 31.875 470.374 31.95 469.941 32.1C469.507 32.2333 469.174 32.4333 468.941 32.7C468.724 32.9667 468.616 33.275 468.616 33.625C468.616 33.975 468.757 34.275 469.041 34.525C469.341 34.7583 469.882 34.9583 470.666 35.125L473.566 35.75C475.182 36.1 476.391 36.675 477.191 37.475C477.991 38.275 478.391 39.3167 478.391 40.6C478.391 41.4667 478.216 42.25 477.866 42.95C477.516 43.65 477.016 44.25 476.366 44.75C475.716 45.2333 474.932 45.6083 474.016 45.875C473.099 46.1417 472.066 46.275 470.916 46.275ZM483.05 46C482.266 46 481.666 45.8 481.25 45.4C480.85 44.9833 480.65 44.3917 480.65 43.625V30.75C480.65 29.9833 480.85 29.4 481.25 29C481.666 28.5833 482.266 28.375 483.05 28.375H491.525C492.125 28.375 492.575 28.525 492.875 28.825C493.175 29.125 493.325 29.5583 493.325 30.125C493.325 30.7083 493.175 31.1583 492.875 31.475C492.575 31.775 492.125 31.925 491.525 31.925H485.05V35.275H490.975C491.558 35.275 492 35.425 492.3 35.725C492.616 36.025 492.775 36.4667 492.775 37.05C492.775 37.6333 492.616 38.075 492.3 38.375C492 38.675 491.558 38.825 490.975 38.825H485.05V42.45H491.525C492.125 42.45 492.575 42.6083 492.875 42.925C493.175 43.225 493.325 43.6583 493.325 44.225C493.325 44.8083 493.175 45.25 492.875 45.55C492.575 45.85 492.125 46 491.525 46H483.05ZM498.306 46.225C497.573 46.225 497.006 46.025 496.606 45.625C496.206 45.2083 496.006 44.6333 496.006 43.9V30.7C496.006 29.95 496.206 29.375 496.606 28.975C497.023 28.575 497.598 28.375 498.331 28.375H504.481C506.481 28.375 508.023 28.8667 509.106 29.85C510.206 30.8167 510.756 32.1667 510.756 33.9C510.756 35.0167 510.506 35.9917 510.006 36.825C509.523 37.6417 508.815 38.275 507.881 38.725C506.965 39.1583 505.831 39.375 504.481 39.375L504.681 38.925H505.881C506.598 38.925 507.231 39.1 507.781 39.45C508.331 39.7833 508.79 40.3 509.156 41L510.406 43.25C510.673 43.7333 510.798 44.2083 510.781 44.675C510.765 45.125 510.581 45.5 510.231 45.8C509.898 46.0833 509.406 46.225 508.756 46.225C508.106 46.225 507.573 46.0917 507.156 45.825C506.756 45.5583 506.398 45.1417 506.081 44.575L503.806 40.4C503.606 40.0333 503.348 39.7833 503.031 39.65C502.731 39.5 502.381 39.425 501.981 39.425H500.606V43.9C500.606 44.6333 500.415 45.2083 500.031 45.625C499.648 46.025 499.073 46.225 498.306 46.225ZM500.606 36.175H503.656C504.54 36.175 505.215 36 505.681 35.65C506.148 35.3 506.381 34.7583 506.381 34.025C506.381 33.325 506.148 32.8 505.681 32.45C505.215 32.0833 504.54 31.9 503.656 31.9H500.606V36.175ZM515.808 46.225C515.108 46.225 514.574 46.0417 514.208 45.675C513.841 45.3083 513.658 44.7667 513.658 44.05V30.425C513.658 29.6917 513.841 29.1333 514.208 28.75C514.574 28.35 515.058 28.15 515.658 28.15C516.191 28.15 516.608 28.25 516.908 28.45C517.208 28.65 517.541 28.9833 517.908 29.45L525.833 39.35H525.133V30.3C525.133 29.6 525.308 29.0667 525.658 28.7C526.024 28.3333 526.558 28.15 527.258 28.15C527.958 28.15 528.483 28.3333 528.833 28.7C529.199 29.0667 529.383 29.6 529.383 30.3V44.15C529.383 44.7833 529.216 45.2917 528.883 45.675C528.549 46.0417 528.099 46.225 527.533 46.225C526.966 46.225 526.516 46.125 526.183 45.925C525.866 45.7083 525.524 45.375 525.158 44.925L517.233 35H517.933V44.05C517.933 44.7667 517.749 45.3083 517.383 45.675C517.033 46.0417 516.508 46.225 515.808 46.225ZM533.428 46.225C532.911 46.225 532.478 46.1083 532.128 45.875C531.778 45.625 531.561 45.2917 531.478 44.875C531.395 44.4417 531.47 43.9583 531.703 43.425L537.928 30.025C538.228 29.375 538.595 28.9 539.028 28.6C539.478 28.3 539.986 28.15 540.553 28.15C541.12 28.15 541.611 28.3 542.028 28.6C542.461 28.9 542.836 29.375 543.153 30.025L549.378 43.425C549.645 43.9583 549.736 44.4417 549.653 44.875C549.586 45.3083 549.378 45.6417 549.028 45.875C548.695 46.1083 548.278 46.225 547.778 46.225C547.111 46.225 546.595 46.075 546.228 45.775C545.878 45.475 545.561 44.9917 545.278 44.325L543.928 41.15L545.678 42.425H535.378L537.153 41.15L535.803 44.325C535.503 44.9917 535.195 45.475 534.878 45.775C534.561 46.075 534.078 46.225 533.428 46.225ZM540.503 33.175L537.603 40.1L536.903 38.9H544.178L543.478 40.1L540.553 33.175H540.503ZM553.795 46.225C553.129 46.225 552.612 46.0417 552.245 45.675C551.895 45.3083 551.72 44.7917 551.72 44.125V30.25C551.72 29.5667 551.912 29.05 552.295 28.7C552.679 28.3333 553.22 28.15 553.92 28.15C554.504 28.15 554.962 28.2667 555.295 28.5C555.645 28.7167 555.962 29.0833 556.245 29.6L561.62 39.25H560.745L566.095 29.6C566.395 29.0833 566.712 28.7167 567.045 28.5C567.395 28.2667 567.862 28.15 568.445 28.15C569.112 28.15 569.62 28.3333 569.97 28.7C570.337 29.05 570.52 29.5667 570.52 30.25V44.125C570.52 44.7917 570.345 45.3083 569.995 45.675C569.645 46.0417 569.129 46.225 568.445 46.225C567.779 46.225 567.262 46.0417 566.895 45.675C566.545 45.3083 566.37 44.7917 566.37 44.125V35.525H566.895L562.87 42.525C562.637 42.8917 562.387 43.1667 562.12 43.35C561.87 43.5333 561.529 43.625 561.095 43.625C560.679 43.625 560.337 43.5333 560.07 43.35C559.804 43.1667 559.562 42.8917 559.345 42.525L555.295 35.5H555.87V44.125C555.87 44.7917 555.695 45.3083 555.345 45.675C554.995 46.0417 554.479 46.225 553.795 46.225ZM576.165 46C575.382 46 574.782 45.8 574.365 45.4C573.965 44.9833 573.765 44.3917 573.765 43.625V30.75C573.765 29.9833 573.965 29.4 574.365 29C574.782 28.5833 575.382 28.375 576.165 28.375H584.64C585.24 28.375 585.69 28.525 585.99 28.825C586.29 29.125 586.44 29.5583 586.44 30.125C586.44 30.7083 586.29 31.1583 585.99 31.475C585.69 31.775 585.24 31.925 584.64 31.925H578.165V35.275H584.09C584.673 35.275 585.115 35.425 585.415 35.725C585.732 36.025 585.89 36.4667 585.89 37.05C585.89 37.6333 585.732 38.075 585.415 38.375C585.115 38.675 584.673 38.825 584.09 38.825H578.165V42.45H584.64C585.24 42.45 585.69 42.6083 585.99 42.925C586.29 43.225 586.44 43.6583 586.44 44.225C586.44 44.8083 586.29 45.25 585.99 45.55C585.69 45.85 585.24 46 584.64 46H576.165Z" fill="#202F35"/>
</svg>
