<svg width="291" height="76" viewBox="0 0 291 76" fill="none" xmlns="http://www.w3.org/2000/svg">
<rect width="291" height="76" rx="10" fill="#49BFF7"/>
<path d="M103.39 46.33C101.11 46.33 99.16 45.88 97.54 44.98C95.92 44.08 94.67 42.82 93.79 41.2C92.93 39.56 92.5 37.63 92.5 35.41C92.5 33.75 92.74 32.26 93.22 30.94C93.72 29.6 94.44 28.46 95.38 27.52C96.32 26.56 97.46 25.82 98.8 25.3C100.16 24.78 101.69 24.52 103.39 24.52C104.39 24.52 105.4 24.65 106.42 24.91C107.46 25.15 108.36 25.5 109.12 25.96C109.62 26.24 109.96 26.59 110.14 27.01C110.32 27.43 110.37 27.85 110.29 28.27C110.23 28.69 110.06 29.05 109.78 29.35C109.52 29.65 109.19 29.84 108.79 29.92C108.39 30 107.94 29.91 107.44 29.65C106.84 29.29 106.21 29.03 105.55 28.87C104.89 28.71 104.22 28.63 103.54 28.63C102.2 28.63 101.07 28.9 100.15 29.44C99.25 29.96 98.57 30.72 98.11 31.72C97.65 32.72 97.42 33.95 97.42 35.41C97.42 36.85 97.65 38.08 98.11 39.1C98.57 40.12 99.25 40.9 100.15 41.44C101.07 41.96 102.2 42.22 103.54 42.22C104.18 42.22 104.83 42.14 105.49 41.98C106.17 41.82 106.82 41.57 107.44 41.23C107.96 40.97 108.42 40.88 108.82 40.96C109.24 41.02 109.58 41.2 109.84 41.5C110.12 41.78 110.29 42.12 110.35 42.52C110.43 42.92 110.39 43.32 110.23 43.72C110.07 44.12 109.77 44.46 109.33 44.74C108.59 45.24 107.68 45.63 106.6 45.91C105.52 46.19 104.45 46.33 103.39 46.33ZM115.978 46.27C115.218 46.27 114.638 46.06 114.238 45.64C113.838 45.22 113.638 44.63 113.638 43.87V26.98C113.638 26.22 113.838 25.63 114.238 25.21C114.638 24.79 115.218 24.58 115.978 24.58C116.718 24.58 117.288 24.79 117.688 25.21C118.088 25.63 118.288 26.22 118.288 26.98V33.34H128.128V26.98C128.128 26.22 128.328 25.63 128.728 25.21C129.128 24.79 129.698 24.58 130.438 24.58C131.198 24.58 131.778 24.79 132.178 25.21C132.578 25.63 132.778 26.22 132.778 26.98V43.87C132.778 44.63 132.578 45.22 132.178 45.64C131.778 46.06 131.198 46.27 130.438 46.27C129.698 46.27 129.128 46.06 128.728 45.64C128.328 45.22 128.128 44.63 128.128 43.87V37.21H118.288V43.87C118.288 44.63 118.088 45.22 117.688 45.64C117.308 46.06 116.738 46.27 115.978 46.27ZM139.476 46C138.696 46 138.096 45.79 137.676 45.37C137.256 44.95 137.046 44.35 137.046 43.57V27.28C137.046 26.5 137.256 25.9 137.676 25.48C138.096 25.06 138.696 24.85 139.476 24.85H149.946C150.546 24.85 150.996 25.01 151.296 25.33C151.616 25.63 151.776 26.07 151.776 26.65C151.776 27.25 151.616 27.71 151.296 28.03C150.996 28.33 150.546 28.48 149.946 28.48H141.486V33.43H149.256C149.876 33.43 150.336 33.59 150.636 33.91C150.956 34.21 151.116 34.66 151.116 35.26C151.116 35.86 150.956 36.32 150.636 36.64C150.336 36.94 149.876 37.09 149.256 37.09H141.486V42.37H149.946C150.546 42.37 150.996 42.53 151.296 42.85C151.616 43.15 151.776 43.59 151.776 44.17C151.776 44.77 151.616 45.23 151.296 45.55C150.996 45.85 150.546 46 149.946 46H139.476ZM165.47 46.33C163.19 46.33 161.24 45.88 159.62 44.98C158 44.08 156.75 42.82 155.87 41.2C155.01 39.56 154.58 37.63 154.58 35.41C154.58 33.75 154.82 32.26 155.3 30.94C155.8 29.6 156.52 28.46 157.46 27.52C158.4 26.56 159.54 25.82 160.88 25.3C162.24 24.78 163.77 24.52 165.47 24.52C166.47 24.52 167.48 24.65 168.5 24.91C169.54 25.15 170.44 25.5 171.2 25.96C171.7 26.24 172.04 26.59 172.22 27.01C172.4 27.43 172.45 27.85 172.37 28.27C172.31 28.69 172.14 29.05 171.86 29.35C171.6 29.65 171.27 29.84 170.87 29.92C170.47 30 170.02 29.91 169.52 29.65C168.92 29.29 168.29 29.03 167.63 28.87C166.97 28.71 166.3 28.63 165.62 28.63C164.28 28.63 163.15 28.9 162.23 29.44C161.33 29.96 160.65 30.72 160.19 31.72C159.73 32.72 159.5 33.95 159.5 35.41C159.5 36.85 159.73 38.08 160.19 39.1C160.65 40.12 161.33 40.9 162.23 41.44C163.15 41.96 164.28 42.22 165.62 42.22C166.26 42.22 166.91 42.14 167.57 41.98C168.25 41.82 168.9 41.57 169.52 41.23C170.04 40.97 170.5 40.88 170.9 40.96C171.32 41.02 171.66 41.2 171.92 41.5C172.2 41.78 172.37 42.12 172.43 42.52C172.51 42.92 172.47 43.32 172.31 43.72C172.15 44.12 171.85 44.46 171.41 44.74C170.67 45.24 169.76 45.63 168.68 45.91C167.6 46.19 166.53 46.33 165.47 46.33ZM178.058 46.27C177.298 46.27 176.718 46.06 176.318 45.64C175.918 45.22 175.718 44.63 175.718 43.87V26.95C175.718 26.19 175.918 25.61 176.318 25.21C176.718 24.79 177.298 24.58 178.058 24.58C178.798 24.58 179.368 24.79 179.768 25.21C180.168 25.61 180.368 26.19 180.368 26.95V34.06H180.428L188.408 25.72C188.748 25.36 189.098 25.09 189.458 24.91C189.838 24.71 190.268 24.61 190.748 24.61C191.448 24.61 191.948 24.79 192.248 25.15C192.568 25.51 192.708 25.93 192.668 26.41C192.628 26.89 192.408 27.34 192.008 27.76L183.998 35.95L184.028 33.94L192.428 42.91C192.888 43.41 193.118 43.92 193.118 44.44C193.138 44.96 192.968 45.4 192.608 45.76C192.268 46.1 191.758 46.27 191.078 46.27C190.498 46.27 190.028 46.15 189.668 45.91C189.328 45.67 188.948 45.32 188.528 44.86L180.428 36.34H180.368V43.87C180.368 44.63 180.168 45.22 179.768 45.64C179.388 46.06 178.818 46.27 178.058 46.27Z" fill="#202F35"/>
</svg>
