<svg width="291" height="76" viewBox="0 0 291 76" fill="none" xmlns="http://www.w3.org/2000/svg">
<rect width="291" height="76" rx="10" fill="#A83336"/>
<path d="M78.39 51.33C76.11 51.33 74.16 50.88 72.54 49.98C70.92 49.08 69.67 47.82 68.79 46.2C67.93 44.56 67.5 42.63 67.5 40.41C67.5 38.75 67.74 37.26 68.22 35.94C68.72 34.6 69.44 33.46 70.38 32.52C71.32 31.56 72.46 30.82 73.8 30.3C75.16 29.78 76.69 29.52 78.39 29.52C79.39 29.52 80.4 29.65 81.42 29.91C82.46 30.15 83.36 30.5 84.12 30.96C84.62 31.24 84.96 31.59 85.14 32.01C85.32 32.43 85.37 32.85 85.29 33.27C85.23 33.69 85.06 34.05 84.78 34.35C84.52 34.65 84.19 34.84 83.79 34.92C83.39 35 82.94 34.91 82.44 34.65C81.84 34.29 81.21 34.03 80.55 33.87C79.89 33.71 79.22 33.63 78.54 33.63C77.2 33.63 76.07 33.9 75.15 34.44C74.25 34.96 73.57 35.72 73.11 36.72C72.65 37.72 72.42 38.95 72.42 40.41C72.42 41.85 72.65 43.08 73.11 44.1C73.57 45.12 74.25 45.9 75.15 46.44C76.07 46.96 77.2 47.22 78.54 47.22C79.18 47.22 79.83 47.14 80.49 46.98C81.17 46.82 81.82 46.57 82.44 46.23C82.96 45.97 83.42 45.88 83.82 45.96C84.24 46.02 84.58 46.2 84.84 46.5C85.12 46.78 85.29 47.12 85.35 47.52C85.43 47.92 85.39 48.32 85.23 48.72C85.07 49.12 84.77 49.46 84.33 49.74C83.59 50.24 82.68 50.63 81.6 50.91C80.52 51.19 79.45 51.33 78.39 51.33ZM97.7154 51.33C95.6354 51.33 93.8054 50.88 92.2254 49.98C90.6654 49.06 89.4454 47.78 88.5654 46.14C87.7054 44.5 87.2754 42.59 87.2754 40.41C87.2754 38.75 87.5154 37.26 87.9954 35.94C88.4954 34.6 89.2054 33.46 90.1254 32.52C91.0454 31.56 92.1454 30.82 93.4254 30.3C94.7254 29.78 96.1554 29.52 97.7154 29.52C99.8354 29.52 101.675 29.97 103.235 30.87C104.795 31.77 106.005 33.04 106.865 34.68C107.745 36.3 108.185 38.2 108.185 40.38C108.185 42.04 107.935 43.54 107.435 44.88C106.935 46.22 106.225 47.37 105.305 48.33C104.385 49.29 103.285 50.03 102.005 50.55C100.725 51.07 99.2954 51.33 97.7154 51.33ZM97.7154 47.37C98.8954 47.37 99.8954 47.1 100.715 46.56C101.555 46 102.195 45.2 102.635 44.16C103.095 43.1 103.325 41.85 103.325 40.41C103.325 38.21 102.835 36.51 101.855 35.31C100.875 34.09 99.4954 33.48 97.7154 33.48C96.5554 33.48 95.5554 33.75 94.7154 34.29C93.8754 34.83 93.2354 35.62 92.7954 36.66C92.3554 37.7 92.1354 38.95 92.1354 40.41C92.1354 42.59 92.6254 44.3 93.6054 45.54C94.5854 46.76 95.9554 47.37 97.7154 47.37ZM113.942 51.27C113.242 51.27 112.702 51.08 112.322 50.7C111.962 50.3 111.782 49.74 111.782 49.02V31.92C111.782 31.16 111.962 30.58 112.322 30.18C112.702 29.78 113.202 29.58 113.822 29.58C114.362 29.58 114.772 29.69 115.052 29.91C115.352 30.11 115.692 30.45 116.072 30.93L126.602 44.34H125.792V31.8C125.792 31.1 125.972 30.56 126.332 30.18C126.712 29.78 127.252 29.58 127.952 29.58C128.652 29.58 129.182 29.78 129.542 30.18C129.922 30.56 130.112 31.1 130.112 31.8V49.11C130.112 49.77 129.942 50.3 129.602 50.7C129.262 51.08 128.802 51.27 128.222 51.27C127.662 51.27 127.212 51.16 126.872 50.94C126.552 50.72 126.202 50.37 125.822 49.89L115.322 36.48H116.102V49.02C116.102 49.74 115.922 50.3 115.562 50.7C115.202 51.08 114.662 51.27 113.942 51.27ZM141.75 51.27C140.99 51.27 140.41 51.06 140.01 50.64C139.61 50.22 139.41 49.63 139.41 48.87V33.69H134.1C133.48 33.69 133 33.52 132.66 33.18C132.32 32.84 132.15 32.37 132.15 31.77C132.15 31.15 132.32 30.68 132.66 30.36C133 30.02 133.48 29.85 134.1 29.85H149.37C149.99 29.85 150.47 30.02 150.81 30.36C151.15 30.68 151.32 31.15 151.32 31.77C151.32 32.37 151.15 32.84 150.81 33.18C150.47 33.52 149.99 33.69 149.37 33.69H144.06V48.87C144.06 49.63 143.86 50.22 143.46 50.64C143.08 51.06 142.51 51.27 141.75 51.27ZM155.665 51.27C154.905 51.27 154.325 51.06 153.925 50.64C153.525 50.22 153.325 49.63 153.325 48.87V31.98C153.325 31.22 153.525 30.63 153.925 30.21C154.325 29.79 154.905 29.58 155.665 29.58C156.405 29.58 156.975 29.79 157.375 30.21C157.775 30.63 157.975 31.22 157.975 31.98V48.87C157.975 49.63 157.775 50.22 157.375 50.64C156.995 51.06 156.425 51.27 155.665 51.27ZM164.392 51.27C163.692 51.27 163.152 51.08 162.772 50.7C162.412 50.3 162.232 49.74 162.232 49.02V31.92C162.232 31.16 162.412 30.58 162.772 30.18C163.152 29.78 163.652 29.58 164.272 29.58C164.812 29.58 165.222 29.69 165.502 29.91C165.802 30.11 166.142 30.45 166.522 30.93L177.052 44.34H176.242V31.8C176.242 31.1 176.422 30.56 176.782 30.18C177.162 29.78 177.702 29.58 178.402 29.58C179.102 29.58 179.632 29.78 179.992 30.18C180.372 30.56 180.562 31.1 180.562 31.8V49.11C180.562 49.77 180.392 50.3 180.052 50.7C179.712 51.08 179.252 51.27 178.672 51.27C178.112 51.27 177.662 51.16 177.322 50.94C177.002 50.72 176.652 50.37 176.272 49.89L165.772 36.48H166.552V49.02C166.552 49.74 166.372 50.3 166.012 50.7C165.652 51.08 165.112 51.27 164.392 51.27ZM193.879 51.33C192.379 51.33 191.049 51.14 189.889 50.76C188.749 50.36 187.789 49.78 187.009 49.02C186.229 48.26 185.639 47.31 185.239 46.17C184.859 45.01 184.669 43.67 184.669 42.15V31.95C184.669 31.17 184.869 30.58 185.269 30.18C185.669 29.78 186.249 29.58 187.009 29.58C187.749 29.58 188.319 29.78 188.719 30.18C189.119 30.58 189.319 31.17 189.319 31.95V42.18C189.319 43.9 189.709 45.2 190.489 46.08C191.269 46.94 192.399 47.37 193.879 47.37C195.359 47.37 196.479 46.94 197.239 46.08C198.019 45.2 198.409 43.9 198.409 42.18V31.95C198.409 31.17 198.609 30.58 199.009 30.18C199.409 29.78 199.979 29.58 200.719 29.58C201.459 29.58 202.019 29.78 202.399 30.18C202.799 30.58 202.999 31.17 202.999 31.95V42.15C202.999 44.17 202.649 45.87 201.949 47.25C201.269 48.61 200.249 49.63 198.889 50.31C197.549 50.99 195.879 51.33 193.879 51.33ZM209.544 51C208.764 51 208.164 50.79 207.744 50.37C207.324 49.95 207.114 49.35 207.114 48.57V32.28C207.114 31.5 207.324 30.9 207.744 30.48C208.164 30.06 208.764 29.85 209.544 29.85H220.014C220.614 29.85 221.064 30.01 221.364 30.33C221.684 30.63 221.844 31.07 221.844 31.65C221.844 32.25 221.684 32.71 221.364 33.03C221.064 33.33 220.614 33.48 220.014 33.48H211.554V38.43H219.324C219.944 38.43 220.404 38.59 220.704 38.91C221.024 39.21 221.184 39.66 221.184 40.26C221.184 40.86 221.024 41.32 220.704 41.64C220.404 41.94 219.944 42.09 219.324 42.09H211.554V47.37H220.014C220.614 47.37 221.064 47.53 221.364 47.85C221.684 48.15 221.844 48.59 221.844 49.17C221.844 49.77 221.684 50.23 221.364 50.55C221.064 50.85 220.614 51 220.014 51H209.544Z" fill="#202F35"/>
</svg>
