<svg width="291" height="76" viewBox="0 0 291 76" fill="none" xmlns="http://www.w3.org/2000/svg">
<rect width="291" height="76" rx="10" fill="#4BA633"/>
<path d="M74.39 46.33C72.11 46.33 70.16 45.88 68.54 44.98C66.92 44.08 65.67 42.82 64.79 41.2C63.93 39.56 63.5 37.63 63.5 35.41C63.5 33.75 63.74 32.26 64.22 30.94C64.72 29.6 65.44 28.46 66.38 27.52C67.32 26.56 68.46 25.82 69.8 25.3C71.16 24.78 72.69 24.52 74.39 24.52C75.39 24.52 76.4 24.65 77.42 24.91C78.46 25.15 79.36 25.5 80.12 25.96C80.62 26.24 80.96 26.59 81.14 27.01C81.32 27.43 81.37 27.85 81.29 28.27C81.23 28.69 81.06 29.05 80.78 29.35C80.52 29.65 80.19 29.84 79.79 29.92C79.39 30 78.94 29.91 78.44 29.65C77.84 29.29 77.21 29.03 76.55 28.87C75.89 28.71 75.22 28.63 74.54 28.63C73.2 28.63 72.07 28.9 71.15 29.44C70.25 29.96 69.57 30.72 69.11 31.72C68.65 32.72 68.42 33.95 68.42 35.41C68.42 36.85 68.65 38.08 69.11 39.1C69.57 40.12 70.25 40.9 71.15 41.44C72.07 41.96 73.2 42.22 74.54 42.22C75.18 42.22 75.83 42.14 76.49 41.98C77.17 41.82 77.82 41.57 78.44 41.23C78.96 40.97 79.42 40.88 79.82 40.96C80.24 41.02 80.58 41.2 80.84 41.5C81.12 41.78 81.29 42.12 81.35 42.52C81.43 42.92 81.39 43.32 81.23 43.72C81.07 44.12 80.77 44.46 80.33 44.74C79.59 45.24 78.68 45.63 77.6 45.91C76.52 46.19 75.45 46.33 74.39 46.33ZM93.7154 46.33C91.6354 46.33 89.8054 45.88 88.2254 44.98C86.6654 44.06 85.4454 42.78 84.5654 41.14C83.7054 39.5 83.2754 37.59 83.2754 35.41C83.2754 33.75 83.5154 32.26 83.9954 30.94C84.4954 29.6 85.2054 28.46 86.1254 27.52C87.0454 26.56 88.1454 25.82 89.4254 25.3C90.7254 24.78 92.1554 24.52 93.7154 24.52C95.8354 24.52 97.6754 24.97 99.2354 25.87C100.795 26.77 102.005 28.04 102.865 29.68C103.745 31.3 104.185 33.2 104.185 35.38C104.185 37.04 103.935 38.54 103.435 39.88C102.935 41.22 102.225 42.37 101.305 43.33C100.385 44.29 99.2854 45.03 98.0054 45.55C96.7254 46.07 95.2954 46.33 93.7154 46.33ZM93.7154 42.37C94.8954 42.37 95.8954 42.1 96.7154 41.56C97.5554 41 98.1954 40.2 98.6354 39.16C99.0954 38.1 99.3254 36.85 99.3254 35.41C99.3254 33.21 98.8354 31.51 97.8554 30.31C96.8754 29.09 95.4954 28.48 93.7154 28.48C92.5554 28.48 91.5554 28.75 90.7154 29.29C89.8754 29.83 89.2354 30.62 88.7954 31.66C88.3554 32.7 88.1354 33.95 88.1354 35.41C88.1354 37.59 88.6254 39.3 89.6054 40.54C90.5854 41.76 91.9554 42.37 93.7154 42.37ZM109.942 46.27C109.242 46.27 108.702 46.08 108.322 45.7C107.962 45.3 107.782 44.74 107.782 44.02V26.92C107.782 26.16 107.962 25.58 108.322 25.18C108.702 24.78 109.202 24.58 109.822 24.58C110.362 24.58 110.772 24.69 111.052 24.91C111.352 25.11 111.692 25.45 112.072 25.93L122.602 39.34H121.792V26.8C121.792 26.1 121.972 25.56 122.332 25.18C122.712 24.78 123.252 24.58 123.952 24.58C124.652 24.58 125.182 24.78 125.542 25.18C125.922 25.56 126.112 26.1 126.112 26.8V44.11C126.112 44.77 125.942 45.3 125.602 45.7C125.262 46.08 124.802 46.27 124.222 46.27C123.662 46.27 123.212 46.16 122.872 45.94C122.552 45.72 122.202 45.37 121.822 44.89L111.322 31.48H112.102V44.02C112.102 44.74 111.922 45.3 111.562 45.7C111.202 46.08 110.662 46.27 109.942 46.27ZM137.75 46.27C136.99 46.27 136.41 46.06 136.01 45.64C135.61 45.22 135.41 44.63 135.41 43.87V28.69H130.1C129.48 28.69 129 28.52 128.66 28.18C128.32 27.84 128.15 27.37 128.15 26.77C128.15 26.15 128.32 25.68 128.66 25.36C129 25.02 129.48 24.85 130.1 24.85H145.37C145.99 24.85 146.47 25.02 146.81 25.36C147.15 25.68 147.32 26.15 147.32 26.77C147.32 27.37 147.15 27.84 146.81 28.18C146.47 28.52 145.99 28.69 145.37 28.69H140.06V43.87C140.06 44.63 139.86 45.22 139.46 45.64C139.08 46.06 138.51 46.27 137.75 46.27ZM151.665 46.27C150.905 46.27 150.325 46.06 149.925 45.64C149.525 45.22 149.325 44.63 149.325 43.87V26.98C149.325 26.22 149.525 25.63 149.925 25.21C150.325 24.79 150.905 24.58 151.665 24.58C152.405 24.58 152.975 24.79 153.375 25.21C153.775 25.63 153.975 26.22 153.975 26.98V43.87C153.975 44.63 153.775 45.22 153.375 45.64C152.995 46.06 152.425 46.27 151.665 46.27ZM160.392 46.27C159.692 46.27 159.152 46.08 158.772 45.7C158.412 45.3 158.232 44.74 158.232 44.02V26.92C158.232 26.16 158.412 25.58 158.772 25.18C159.152 24.78 159.652 24.58 160.272 24.58C160.812 24.58 161.222 24.69 161.502 24.91C161.802 25.11 162.142 25.45 162.522 25.93L173.052 39.34H172.242V26.8C172.242 26.1 172.422 25.56 172.782 25.18C173.162 24.78 173.702 24.58 174.402 24.58C175.102 24.58 175.632 24.78 175.992 25.18C176.372 25.56 176.562 26.1 176.562 26.8V44.11C176.562 44.77 176.392 45.3 176.052 45.7C175.712 46.08 175.252 46.27 174.672 46.27C174.112 46.27 173.662 46.16 173.322 45.94C173.002 45.72 172.652 45.37 172.272 44.89L161.772 31.48H162.552V44.02C162.552 44.74 162.372 45.3 162.012 45.7C161.652 46.08 161.112 46.27 160.392 46.27ZM189.879 46.33C188.379 46.33 187.049 46.14 185.889 45.76C184.749 45.36 183.789 44.78 183.009 44.02C182.229 43.26 181.639 42.31 181.239 41.17C180.859 40.01 180.669 38.67 180.669 37.15V26.95C180.669 26.17 180.869 25.58 181.269 25.18C181.669 24.78 182.249 24.58 183.009 24.58C183.749 24.58 184.319 24.78 184.719 25.18C185.119 25.58 185.319 26.17 185.319 26.95V37.18C185.319 38.9 185.709 40.2 186.489 41.08C187.269 41.94 188.399 42.37 189.879 42.37C191.359 42.37 192.479 41.94 193.239 41.08C194.019 40.2 194.409 38.9 194.409 37.18V26.95C194.409 26.17 194.609 25.58 195.009 25.18C195.409 24.78 195.979 24.58 196.719 24.58C197.459 24.58 198.019 24.78 198.399 25.18C198.799 25.58 198.999 26.17 198.999 26.95V37.15C198.999 39.17 198.649 40.87 197.949 42.25C197.269 43.61 196.249 44.63 194.889 45.31C193.549 45.99 191.879 46.33 189.879 46.33ZM205.544 46C204.764 46 204.164 45.79 203.744 45.37C203.324 44.95 203.114 44.35 203.114 43.57V27.28C203.114 26.5 203.324 25.9 203.744 25.48C204.164 25.06 204.764 24.85 205.544 24.85H216.014C216.614 24.85 217.064 25.01 217.364 25.33C217.684 25.63 217.844 26.07 217.844 26.65C217.844 27.25 217.684 27.71 217.364 28.03C217.064 28.33 216.614 28.48 216.014 28.48H207.554V33.43H215.324C215.944 33.43 216.404 33.59 216.704 33.91C217.024 34.21 217.184 34.66 217.184 35.26C217.184 35.86 217.024 36.32 216.704 36.64C216.404 36.94 215.944 37.09 215.324 37.09H207.554V42.37H216.014C216.614 42.37 217.064 42.53 217.364 42.85C217.684 43.15 217.844 43.59 217.844 44.17C217.844 44.77 217.684 45.23 217.364 45.55C217.064 45.85 216.614 46 216.014 46H205.544Z" fill="#202F35"/>
</svg>
