<svg width="400" height="76" viewBox="0 0 400 76" fill="none" xmlns="http://www.w3.org/2000/svg">
<rect width="400" height="76" rx="10" fill="#4BA633"/>
<path d="M107.56 49C106.78 49 106.18 48.79 105.76 48.37C105.34 47.95 105.13 47.35 105.13 46.57V30.28C105.13 29.5 105.34 28.9 105.76 28.48C106.18 28.06 106.78 27.85 107.56 27.85H118.03C118.63 27.85 119.08 28.01 119.38 28.33C119.7 28.63 119.86 29.07 119.86 29.65C119.86 30.25 119.7 30.71 119.38 31.03C119.08 31.33 118.63 31.48 118.03 31.48H109.57V36.43H117.34C117.96 36.43 118.42 36.59 118.72 36.91C119.04 37.21 119.2 37.66 119.2 38.26C119.2 38.86 119.04 39.32 118.72 39.64C118.42 39.94 117.96 40.09 117.34 40.09H109.57V45.37H118.03C118.63 45.37 119.08 45.53 119.38 45.85C119.7 46.15 119.86 46.59 119.86 47.17C119.86 47.77 119.7 48.23 119.38 48.55C119.08 48.85 118.63 49 118.03 49H107.56ZM125.454 49.27C124.754 49.27 124.214 49.08 123.834 48.7C123.474 48.3 123.294 47.74 123.294 47.02V29.92C123.294 29.16 123.474 28.58 123.834 28.18C124.214 27.78 124.714 27.58 125.334 27.58C125.874 27.58 126.284 27.69 126.564 27.91C126.864 28.11 127.204 28.45 127.584 28.93L138.114 42.34H137.304V29.8C137.304 29.1 137.484 28.56 137.844 28.18C138.224 27.78 138.764 27.58 139.464 27.58C140.164 27.58 140.694 27.78 141.054 28.18C141.434 28.56 141.624 29.1 141.624 29.8V47.11C141.624 47.77 141.454 48.3 141.114 48.7C140.774 49.08 140.314 49.27 139.734 49.27C139.174 49.27 138.724 49.16 138.384 48.94C138.064 48.72 137.714 48.37 137.334 47.89L126.834 34.48H127.614V47.02C127.614 47.74 127.434 48.3 127.074 48.7C126.714 49.08 126.174 49.27 125.454 49.27ZM148.312 49C147.532 49 146.932 48.79 146.512 48.37C146.092 47.95 145.882 47.35 145.882 46.57V30.28C145.882 29.5 146.092 28.9 146.512 28.48C146.932 28.06 147.532 27.85 148.312 27.85H154.162C157.782 27.85 160.572 28.77 162.532 30.61C164.512 32.43 165.502 35.03 165.502 38.41C165.502 40.11 165.242 41.62 164.722 42.94C164.222 44.24 163.492 45.34 162.532 46.24C161.572 47.14 160.392 47.83 158.992 48.31C157.592 48.77 155.982 49 154.162 49H148.312ZM150.532 45.19H153.892C155.032 45.19 156.022 45.05 156.862 44.77C157.702 44.49 158.402 44.07 158.962 43.51C159.522 42.95 159.942 42.25 160.222 41.41C160.502 40.55 160.642 39.55 160.642 38.41C160.642 36.13 160.072 34.44 158.932 33.34C157.812 32.22 156.132 31.66 153.892 31.66H150.532V45.19ZM179.863 49C179.103 49 178.513 48.79 178.093 48.37C177.693 47.95 177.493 47.37 177.493 46.63V30.16C177.493 29.38 177.693 28.79 178.093 28.39C178.493 27.99 179.073 27.79 179.833 27.79C180.573 27.79 181.143 27.99 181.543 28.39C181.943 28.79 182.143 29.38 182.143 30.16V45.07H190.183C190.823 45.07 191.313 45.24 191.653 45.58C192.013 45.92 192.193 46.4 192.193 47.02C192.193 47.66 192.013 48.15 191.653 48.49C191.313 48.83 190.823 49 190.183 49H179.863ZM197.121 49C196.341 49 195.741 48.79 195.321 48.37C194.901 47.95 194.691 47.35 194.691 46.57V30.28C194.691 29.5 194.901 28.9 195.321 28.48C195.741 28.06 196.341 27.85 197.121 27.85H207.591C208.191 27.85 208.641 28.01 208.941 28.33C209.261 28.63 209.421 29.07 209.421 29.65C209.421 30.25 209.261 30.71 208.941 31.03C208.641 31.33 208.191 31.48 207.591 31.48H199.131V36.43H206.901C207.521 36.43 207.981 36.59 208.281 36.91C208.601 37.21 208.761 37.66 208.761 38.26C208.761 38.86 208.601 39.32 208.281 39.64C207.981 39.94 207.521 40.09 206.901 40.09H199.131V45.37H207.591C208.191 45.37 208.641 45.53 208.941 45.85C209.261 46.15 209.421 46.59 209.421 47.17C209.421 47.77 209.261 48.23 208.941 48.55C208.641 48.85 208.191 49 207.591 49H197.121ZM220.122 49.33C219.282 49.33 218.422 49.26 217.542 49.12C216.682 49 215.852 48.82 215.052 48.58C214.272 48.34 213.572 48.04 212.952 47.68C212.512 47.44 212.202 47.13 212.022 46.75C211.842 46.35 211.772 45.95 211.812 45.55C211.872 45.15 212.022 44.8 212.262 44.5C212.522 44.18 212.842 43.98 213.222 43.9C213.622 43.8 214.062 43.87 214.542 44.11C215.362 44.57 216.252 44.91 217.212 45.13C218.192 45.35 219.162 45.46 220.122 45.46C221.582 45.46 222.622 45.24 223.242 44.8C223.862 44.34 224.172 43.77 224.172 43.09C224.172 42.51 223.952 42.05 223.512 41.71C223.072 41.37 222.302 41.08 221.202 40.84L217.812 40.12C215.892 39.72 214.462 39.04 213.522 38.08C212.602 37.1 212.142 35.82 212.142 34.24C212.142 33.24 212.352 32.33 212.772 31.51C213.192 30.69 213.782 29.98 214.542 29.38C215.302 28.78 216.202 28.32 217.242 28C218.302 27.68 219.462 27.52 220.722 27.52C221.842 27.52 222.942 27.66 224.022 27.94C225.102 28.2 226.052 28.59 226.872 29.11C227.272 29.35 227.542 29.66 227.682 30.04C227.842 30.4 227.892 30.77 227.832 31.15C227.792 31.51 227.642 31.83 227.382 32.11C227.142 32.39 226.832 32.57 226.452 32.65C226.072 32.73 225.612 32.64 225.072 32.38C224.412 32.04 223.712 31.79 222.972 31.63C222.232 31.47 221.472 31.39 220.692 31.39C219.852 31.39 219.132 31.5 218.532 31.72C217.952 31.94 217.502 32.25 217.182 32.65C216.882 33.05 216.732 33.51 216.732 34.03C216.732 34.61 216.942 35.08 217.362 35.44C217.782 35.8 218.512 36.09 219.552 36.31L222.942 37.03C224.902 37.45 226.362 38.13 227.322 39.07C228.282 39.99 228.762 41.21 228.762 42.73C228.762 43.73 228.562 44.64 228.162 45.46C227.762 46.26 227.182 46.95 226.422 47.53C225.662 48.11 224.752 48.56 223.692 48.88C222.632 49.18 221.442 49.33 220.122 49.33ZM239.34 49.33C238.5 49.33 237.64 49.26 236.76 49.12C235.9 49 235.07 48.82 234.27 48.58C233.49 48.34 232.79 48.04 232.17 47.68C231.73 47.44 231.42 47.13 231.24 46.75C231.06 46.35 230.99 45.95 231.03 45.55C231.09 45.15 231.24 44.8 231.48 44.5C231.74 44.18 232.06 43.98 232.44 43.9C232.84 43.8 233.28 43.87 233.76 44.11C234.58 44.57 235.47 44.91 236.43 45.13C237.41 45.35 238.38 45.46 239.34 45.46C240.8 45.46 241.84 45.24 242.46 44.8C243.08 44.34 243.39 43.77 243.39 43.09C243.39 42.51 243.17 42.05 242.73 41.71C242.29 41.37 241.52 41.08 240.42 40.84L237.03 40.12C235.11 39.72 233.68 39.04 232.74 38.08C231.82 37.1 231.36 35.82 231.36 34.24C231.36 33.24 231.57 32.33 231.99 31.51C232.41 30.69 233 29.98 233.76 29.38C234.52 28.78 235.42 28.32 236.46 28C237.52 27.68 238.68 27.52 239.94 27.52C241.06 27.52 242.16 27.66 243.24 27.94C244.32 28.2 245.27 28.59 246.09 29.11C246.49 29.35 246.76 29.66 246.9 30.04C247.06 30.4 247.11 30.77 247.05 31.15C247.01 31.51 246.86 31.83 246.6 32.11C246.36 32.39 246.05 32.57 245.67 32.65C245.29 32.73 244.83 32.64 244.29 32.38C243.63 32.04 242.93 31.79 242.19 31.63C241.45 31.47 240.69 31.39 239.91 31.39C239.07 31.39 238.35 31.5 237.75 31.72C237.17 31.94 236.72 32.25 236.4 32.65C236.1 33.05 235.95 33.51 235.95 34.03C235.95 34.61 236.16 35.08 236.58 35.44C237 35.8 237.73 36.09 238.77 36.31L242.16 37.03C244.12 37.45 245.58 38.13 246.54 39.07C247.5 39.99 247.98 41.21 247.98 42.73C247.98 43.73 247.78 44.64 247.38 45.46C246.98 46.26 246.4 46.95 245.64 47.53C244.88 48.11 243.97 48.56 242.91 48.88C241.85 49.18 240.66 49.33 239.34 49.33ZM260.809 49.33C258.729 49.33 256.899 48.88 255.319 47.98C253.759 47.06 252.539 45.78 251.659 44.14C250.799 42.5 250.369 40.59 250.369 38.41C250.369 36.75 250.609 35.26 251.089 33.94C251.589 32.6 252.299 31.46 253.219 30.52C254.139 29.56 255.239 28.82 256.519 28.3C257.819 27.78 259.249 27.52 260.809 27.52C262.929 27.52 264.769 27.97 266.329 28.87C267.889 29.77 269.099 31.04 269.959 32.68C270.839 34.3 271.279 36.2 271.279 38.38C271.279 40.04 271.029 41.54 270.529 42.88C270.029 44.22 269.319 45.37 268.399 46.33C267.479 47.29 266.379 48.03 265.099 48.55C263.819 49.07 262.389 49.33 260.809 49.33ZM260.809 45.37C261.989 45.37 262.989 45.1 263.809 44.56C264.649 44 265.289 43.2 265.729 42.16C266.189 41.1 266.419 39.85 266.419 38.41C266.419 36.21 265.929 34.51 264.949 33.31C263.969 32.09 262.589 31.48 260.809 31.48C259.649 31.48 258.649 31.75 257.809 32.29C256.969 32.83 256.329 33.62 255.889 34.66C255.449 35.7 255.229 36.95 255.229 38.41C255.229 40.59 255.719 42.3 256.699 43.54C257.679 44.76 259.049 45.37 260.809 45.37ZM277.036 49.27C276.336 49.27 275.796 49.08 275.416 48.7C275.056 48.3 274.876 47.74 274.876 47.02V29.92C274.876 29.16 275.056 28.58 275.416 28.18C275.796 27.78 276.296 27.58 276.916 27.58C277.456 27.58 277.866 27.69 278.146 27.91C278.446 28.11 278.786 28.45 279.166 28.93L289.696 42.34H288.886V29.8C288.886 29.1 289.066 28.56 289.426 28.18C289.806 27.78 290.346 27.58 291.046 27.58C291.746 27.58 292.276 27.78 292.636 28.18C293.016 28.56 293.206 29.1 293.206 29.8V47.11C293.206 47.77 293.036 48.3 292.696 48.7C292.356 49.08 291.896 49.27 291.316 49.27C290.756 49.27 290.306 49.16 289.966 48.94C289.646 48.72 289.296 48.37 288.916 47.89L278.416 34.48H279.196V47.02C279.196 47.74 279.016 48.3 278.656 48.7C278.296 49.08 277.756 49.27 277.036 49.27Z" fill="#202F35"/>
</svg>
