<svg width="800" height="80" viewBox="0 0 800 80" fill="none" xmlns="http://www.w3.org/2000/svg">
<rect x="1.5" y="1.5" width="797" height="77" rx="8.5" fill="#131F24" stroke="#37464F" stroke-width="3"/>
<rect x="27.5" y="21.5" width="37" height="37" rx="8.5" fill="#131F24" stroke="#37464F" stroke-width="3"/>
<path d="M41.65 50C41.23 50 40.9 49.88 40.66 49.64C40.42 49.4 40.3 49.08 40.3 48.68C40.3 48.26 40.42 47.94 40.66 47.72C40.9 47.5 41.23 47.39 41.65 47.39H45.31V31.43H46.87L42.49 34.22C42.17 34.4 41.87 34.47 41.59 34.43C41.33 34.39 41.1 34.28 40.9 34.1C40.72 33.92 40.59 33.7 40.51 33.44C40.45 33.18 40.47 32.91 40.57 32.63C40.69 32.35 40.9 32.12 41.2 31.94L45.34 29.33C45.68 29.13 46 28.97 46.3 28.85C46.62 28.71 46.92 28.64 47.2 28.64C47.54 28.64 47.82 28.74 48.04 28.94C48.28 29.12 48.4 29.43 48.4 29.87V47.39H51.76C52.2 47.39 52.54 47.5 52.78 47.72C53.02 47.94 53.14 48.26 53.14 48.68C53.14 49.1 53.02 49.43 52.78 49.67C52.54 49.89 52.2 50 51.76 50H41.65Z" fill="#37464F"/>
</svg>
