<svg width="800" height="80" viewBox="0 0 800 80" fill="none" xmlns="http://www.w3.org/2000/svg">
<rect x="1.5" y="1.5" width="797" height="77" rx="8.5" fill="#131F24" stroke="#37464F" stroke-width="3"/>
<rect x="27.5" y="21.5" width="37" height="37" rx="8.5" fill="#131F24" stroke="#37464F" stroke-width="3"/>
<path d="M45.67 50.27C44.55 50.27 43.41 50.12 42.25 49.82C41.09 49.5 40.08 49.03 39.22 48.41C38.9 48.21 38.68 47.97 38.56 47.69C38.46 47.39 38.44 47.12 38.5 46.88C38.56 46.62 38.68 46.4 38.86 46.22C39.06 46.04 39.3 45.94 39.58 45.92C39.86 45.88 40.17 45.96 40.51 46.16C41.37 46.68 42.21 47.06 43.03 47.3C43.85 47.52 44.7 47.63 45.58 47.63C46.54 47.63 47.35 47.49 48.01 47.21C48.67 46.93 49.16 46.52 49.48 45.98C49.82 45.44 49.99 44.79 49.99 44.03C49.99 42.89 49.61 42.04 48.85 41.48C48.11 40.9 47.03 40.61 45.61 40.61H43.57C43.11 40.61 42.76 40.5 42.52 40.28C42.28 40.04 42.16 39.71 42.16 39.29C42.16 38.89 42.28 38.58 42.52 38.36C42.76 38.12 43.11 38 43.57 38H45.31C46.17 38 46.9 37.86 47.5 37.58C48.1 37.28 48.56 36.87 48.88 36.35C49.22 35.81 49.39 35.16 49.39 34.4C49.39 33.38 49.05 32.6 48.37 32.06C47.71 31.5 46.74 31.22 45.46 31.22C44.64 31.22 43.86 31.33 43.12 31.55C42.4 31.77 41.65 32.16 40.87 32.72C40.57 32.92 40.28 33.01 40 32.99C39.74 32.95 39.51 32.85 39.31 32.69C39.13 32.51 39 32.29 38.92 32.03C38.86 31.77 38.88 31.5 38.98 31.22C39.08 30.94 39.28 30.7 39.58 30.5C40.42 29.88 41.37 29.41 42.43 29.09C43.49 28.75 44.58 28.58 45.7 28.58C47.1 28.58 48.3 28.8 49.3 29.24C50.32 29.68 51.09 30.31 51.61 31.13C52.15 31.95 52.42 32.93 52.42 34.07C52.42 34.93 52.26 35.71 51.94 36.41C51.62 37.11 51.16 37.71 50.56 38.21C49.98 38.69 49.27 39.03 48.43 39.23V38.9C49.89 39.14 51.02 39.74 51.82 40.7C52.62 41.64 53.02 42.82 53.02 44.24C53.02 45.48 52.72 46.56 52.12 47.48C51.54 48.38 50.7 49.07 49.6 49.55C48.5 50.03 47.19 50.27 45.67 50.27Z" fill="#37464F"/>
</svg>
