<svg width="800" height="80" viewBox="0 0 800 80" fill="none" xmlns="http://www.w3.org/2000/svg">
<rect x="1.5" y="1.5" width="797" height="77" rx="8.5" fill="#131F24" stroke="#49BFF7" stroke-width="3"/>
<rect x="27.5" y="21.5" width="37" height="37" rx="8.5" fill="#131F24" stroke="#49BFF7" stroke-width="3"/>
<mask id="path-3-outside-1_528_3" maskUnits="userSpaceOnUse" x="39" y="27" width="16" height="24" fill="black">
<rect fill="white" x="39" y="27" width="16" height="24"/>
<path d="M41.65 50C41.23 50 40.9 49.88 40.66 49.64C40.42 49.4 40.3 49.08 40.3 48.68C40.3 48.26 40.42 47.94 40.66 47.72C40.9 47.5 41.23 47.39 41.65 47.39H45.31V31.43H46.87L42.49 34.22C42.17 34.4 41.87 34.47 41.59 34.43C41.33 34.39 41.1 34.28 40.9 34.1C40.72 33.92 40.59 33.7 40.51 33.44C40.45 33.18 40.47 32.91 40.57 32.63C40.69 32.35 40.9 32.12 41.2 31.94L45.34 29.33C45.68 29.13 46 28.97 46.3 28.85C46.62 28.71 46.92 28.64 47.2 28.64C47.54 28.64 47.82 28.74 48.04 28.94C48.28 29.12 48.4 29.43 48.4 29.87V47.39H51.76C52.2 47.39 52.54 47.5 52.78 47.72C53.02 47.94 53.14 48.26 53.14 48.68C53.14 49.1 53.02 49.43 52.78 49.67C52.54 49.89 52.2 50 51.76 50H41.65Z"/>
</mask>
<path d="M41.65 50C41.23 50 40.9 49.88 40.66 49.64C40.42 49.4 40.3 49.08 40.3 48.68C40.3 48.26 40.42 47.94 40.66 47.72C40.9 47.5 41.23 47.39 41.65 47.39H45.31V31.43H46.87L42.49 34.22C42.17 34.4 41.87 34.47 41.59 34.43C41.33 34.39 41.1 34.28 40.9 34.1C40.72 33.92 40.59 33.7 40.51 33.44C40.45 33.18 40.47 32.91 40.57 32.63C40.69 32.35 40.9 32.12 41.2 31.94L45.34 29.33C45.68 29.13 46 28.97 46.3 28.85C46.62 28.71 46.92 28.64 47.2 28.64C47.54 28.64 47.82 28.74 48.04 28.94C48.28 29.12 48.4 29.43 48.4 29.87V47.39H51.76C52.2 47.39 52.54 47.5 52.78 47.72C53.02 47.94 53.14 48.26 53.14 48.68C53.14 49.1 53.02 49.43 52.78 49.67C52.54 49.89 52.2 50 51.76 50H41.65Z" fill="#49BFF7"/>
<path d="M40.66 49.64L41.3671 48.9329L41.3671 48.9329L40.66 49.64ZM40.66 47.72L41.3357 48.4572L41.3357 48.4572L40.66 47.72ZM45.31 47.39V48.39H46.31V47.39H45.31ZM45.31 31.43V30.43H44.31V31.43H45.31ZM46.87 31.43L47.4072 32.2734L50.3012 30.43H46.87V31.43ZM42.49 34.22L42.9803 35.0916L43.0041 35.0781L43.0272 35.0634L42.49 34.22ZM41.59 34.43L41.4379 35.4184L41.4486 35.4199L41.59 34.43ZM40.9 34.1L40.1929 34.8071L40.2115 34.8257L40.231 34.8433L40.9 34.1ZM40.51 33.44L39.5356 33.6649L39.5437 33.6998L39.5542 33.7341L40.51 33.44ZM40.57 32.63L39.6509 32.2361L39.6387 32.2645L39.6283 32.2937L40.57 32.63ZM41.2 31.94L41.7145 32.7975L41.724 32.7918L41.7333 32.7859L41.2 31.94ZM45.34 29.33L44.833 28.4681L44.8197 28.4759L44.8067 28.4841L45.34 29.33ZM46.3 28.85L46.6714 29.7785L46.6862 29.7726L46.7008 29.7662L46.3 28.85ZM48.04 28.94L47.3673 29.6799L47.4022 29.7117L47.44 29.74L48.04 28.94ZM48.4 47.39H47.4V48.39H48.4V47.39ZM52.78 49.67L53.4557 50.4072L53.4717 50.3925L53.4871 50.3771L52.78 49.67ZM41.65 49C41.4285 49 41.3771 48.9429 41.3671 48.9329L39.9529 50.3471C40.4229 50.8171 41.0315 51 41.65 51V49ZM41.3671 48.9329C41.3478 48.9136 41.3 48.8657 41.3 48.68H39.3C39.3 49.2943 39.4922 49.8864 39.9529 50.3471L41.3671 48.9329ZM41.3 48.68C41.3 48.5634 41.3168 48.5014 41.3263 48.4761C41.3309 48.464 41.3342 48.459 41.3346 48.4585C41.3348 48.4581 41.3348 48.458 41.3357 48.4572L39.9843 46.9828C39.4817 47.4435 39.3 48.0658 39.3 48.68H41.3ZM41.3357 48.4572C41.3427 48.4508 41.4053 48.39 41.65 48.39V46.39C41.0547 46.39 40.4573 46.5492 39.9843 46.9828L41.3357 48.4572ZM41.65 48.39H45.31V46.39H41.65V48.39ZM46.31 47.39V31.43H44.31V47.39H46.31ZM45.31 32.43H46.87V30.43H45.31V32.43ZM46.3328 30.5866L41.9528 33.3766L43.0272 35.0634L47.4072 32.2734L46.3328 30.5866ZM41.9997 33.3484C41.8141 33.4529 41.7363 33.4407 41.7314 33.44L41.4486 35.4199C42.0037 35.4993 42.5259 35.3471 42.9803 35.0916L41.9997 33.3484ZM41.7421 33.4416C41.6792 33.432 41.6277 33.4096 41.569 33.3567L40.231 34.8433C40.5723 35.1504 40.9808 35.348 41.4379 35.4184L41.7421 33.4416ZM41.6071 33.3929C41.5503 33.3361 41.5012 33.261 41.4658 33.1459L39.5542 33.7341C39.6788 34.139 39.8897 34.5039 40.1929 34.8071L41.6071 33.3929ZM41.4844 33.2151C41.4722 33.1623 41.4685 33.0875 41.5117 32.9663L39.6283 32.2937C39.4715 32.7325 39.4278 33.1977 39.5356 33.6649L41.4844 33.2151ZM41.4891 33.0239C41.5144 32.9649 41.567 32.886 41.7145 32.7975L40.6855 31.0825C40.233 31.354 39.8656 31.7351 39.6509 32.2361L41.4891 33.0239ZM41.7333 32.7859L45.8733 30.1759L44.8067 28.4841L40.6667 31.0941L41.7333 32.7859ZM45.847 30.1919C46.1527 30.0121 46.4271 29.8762 46.6714 29.7785L45.9286 27.9215C45.5729 28.0638 45.2073 28.2479 44.833 28.4681L45.847 30.1919ZM46.7008 29.7662C46.9247 29.6682 47.0876 29.64 47.2 29.64V27.64C46.7524 27.64 46.3153 27.7518 45.8992 27.9338L46.7008 29.7662ZM47.2 29.64C47.3295 29.64 47.3579 29.6713 47.3673 29.6799L48.7127 28.2001C48.2821 27.8087 47.7505 27.64 47.2 27.64V29.64ZM47.44 29.74C47.4205 29.7254 47.4039 29.7082 47.3916 29.6915C47.3798 29.6753 47.3763 29.6657 47.3774 29.6685C47.381 29.6777 47.4 29.7357 47.4 29.87H49.4C49.4 29.2689 49.2335 28.5851 48.64 28.14L47.44 29.74ZM47.4 29.87V47.39H49.4V29.87H47.4ZM48.4 48.39H51.76V46.39H48.4V48.39ZM51.76 48.39C51.8987 48.39 51.9865 48.4076 52.0372 48.4239C52.0841 48.4391 52.1001 48.4533 52.1043 48.4572L53.4557 46.9828C52.9747 46.5419 52.361 46.39 51.76 46.39V48.39ZM52.1043 48.4572C52.1052 48.458 52.1052 48.4581 52.1055 48.4585C52.1058 48.459 52.1091 48.464 52.1137 48.4761C52.1232 48.5014 52.14 48.5634 52.14 48.68H54.14C54.14 48.0658 53.9583 47.4435 53.4557 46.9828L52.1043 48.4572ZM52.14 48.68C52.14 48.9015 52.0829 48.9529 52.0729 48.9629L53.4871 50.3771C53.9571 49.9071 54.14 49.2985 54.14 48.68H52.14ZM52.1043 48.9328C52.1001 48.9367 52.0841 48.9509 52.0372 48.9661C51.9865 48.9824 51.8987 49 51.76 49V51C52.361 51 52.9747 50.8481 53.4557 50.4072L52.1043 48.9328ZM51.76 49H41.65V51H51.76V49Z" fill="#49BFF7" mask="url(#path-3-outside-1_528_3)"/>
</svg>
