<svg width="800" height="80" viewBox="0 0 800 80" fill="none" xmlns="http://www.w3.org/2000/svg">
<rect x="1.5" y="1.5" width="797" height="77" rx="8.5" fill="#131F24" stroke="#49BFF7" stroke-width="3"/>
<rect x="27.5" y="21.5" width="37" height="37" rx="8.5" fill="#131F24" stroke="#49BFF7" stroke-width="3"/>
<path d="M40.93 50C40.39 50 40 49.88 39.76 49.64C39.52 49.38 39.4 49.03 39.4 48.59C39.4 48.31 39.47 48.04 39.61 47.78C39.75 47.52 39.95 47.25 40.21 46.97L46.6 40.13C47.58 39.09 48.28 38.14 48.7 37.28C49.14 36.4 49.36 35.52 49.36 34.64C49.36 33.52 49.02 32.67 48.34 32.09C47.66 31.51 46.66 31.22 45.34 31.22C44.54 31.22 43.77 31.34 43.03 31.58C42.29 31.82 41.55 32.21 40.81 32.75C40.51 32.95 40.23 33.04 39.97 33.02C39.71 33 39.48 32.9 39.28 32.72C39.1 32.54 38.98 32.32 38.92 32.06C38.86 31.8 38.87 31.53 38.95 31.25C39.03 30.97 39.22 30.73 39.52 30.53C40.34 29.91 41.29 29.43 42.37 29.09C43.45 28.75 44.55 28.58 45.67 28.58C47.13 28.58 48.36 28.81 49.36 29.27C50.38 29.71 51.15 30.36 51.67 31.22C52.19 32.08 52.45 33.13 52.45 34.37C52.45 35.21 52.31 36.03 52.03 36.83C51.77 37.63 51.36 38.45 50.8 39.29C50.26 40.11 49.55 40.98 48.67 41.9L42.61 48.26V47.39H52.15C52.59 47.39 52.93 47.5 53.17 47.72C53.41 47.94 53.53 48.26 53.53 48.68C53.53 49.1 53.41 49.43 53.17 49.67C52.93 49.89 52.59 50 52.15 50H40.93Z" fill="#49BFF7"/>
</svg>
