<svg width="40" height="40" viewBox="0 0 40 40" fill="none" xmlns="http://www.w3.org/2000/svg">
<rect x="1.5" y="1.5" width="37" height="37" rx="8.5" fill="#131F24" stroke="#37464F" stroke-width="3"/>
<path d="M24.54 31.27C23.68 31.27 22.81 31.16 21.93 30.94C21.05 30.7 20.25 30.35 19.53 29.89C19.27 29.71 19.09 29.51 18.99 29.29C18.89 29.05 18.86 28.81 18.9 28.57C18.96 28.33 19.07 28.13 19.23 27.97C19.39 27.79 19.59 27.68 19.83 27.64C20.07 27.6 20.32 27.66 20.58 27.82C21.24 28.22 21.93 28.51 22.65 28.69C23.37 28.85 24.01 28.93 24.57 28.93C25.45 28.93 26.13 28.75 26.61 28.39C27.11 28.03 27.36 27.53 27.36 26.89C27.36 26.35 27.14 25.91 26.7 25.57C26.26 25.21 25.47 24.86 24.33 24.52C22.73 24.02 21.61 23.45 20.97 22.81C20.33 22.17 20.01 21.36 20.01 20.38C20.01 19.96 20.08 19.56 20.22 19.18C20.36 18.78 20.59 18.37 20.91 17.95C21.25 17.51 21.71 17.03 22.29 16.51C22.87 15.99 23.27 15.53 23.49 15.13C23.73 14.73 23.85 14.29 23.85 13.81C23.85 13.21 23.63 12.74 23.19 12.4C22.75 12.04 22.13 11.86 21.33 11.86C19.97 11.86 18.93 12.26 18.21 13.06C17.51 13.86 17.16 15 17.16 16.48V29.68C17.16 30.16 17.02 30.54 16.74 30.82C16.48 31.08 16.11 31.21 15.63 31.21C15.15 31.21 14.78 31.08 14.52 30.82C14.26 30.54 14.13 30.16 14.13 29.68V16.87C14.13 14.55 14.75 12.76 15.99 11.5C17.25 10.22 19.03 9.58 21.33 9.58C22.45 9.58 23.41 9.74 24.21 10.06C25.03 10.38 25.65 10.84 26.07 11.44C26.51 12.04 26.73 12.75 26.73 13.57C26.73 14.29 26.57 14.95 26.25 15.55C25.93 16.15 25.37 16.81 24.57 17.53C24.13 17.93 23.78 18.27 23.52 18.55C23.26 18.83 23.08 19.09 22.98 19.33C22.9 19.55 22.86 19.79 22.86 20.05C22.86 20.53 23.08 20.95 23.52 21.31C23.96 21.65 24.77 22 25.95 22.36C27.47 22.82 28.55 23.4 29.19 24.1C29.85 24.8 30.18 25.68 30.18 26.74C30.18 27.66 29.95 28.46 29.49 29.14C29.03 29.8 28.37 30.32 27.51 30.7C26.67 31.08 25.68 31.27 24.54 31.27Z" fill="#C1CBD1"/>
</svg>
