<svg width="40" height="40" viewBox="0 0 40 40" fill="none" xmlns="http://www.w3.org/2000/svg">
<rect x="1.5" y="1.5" width="37" height="37" rx="8.5" fill="#131F24" stroke="#37464F" stroke-width="3"/>
<path d="M18.81 31.27C17.79 31.27 16.87 31.07 16.05 30.67C15.25 30.27 14.62 29.73 14.16 29.05C13.7 28.37 13.47 27.6 13.47 26.74C13.47 25.66 13.74 24.81 14.28 24.19C14.84 23.55 15.75 23.1 17.01 22.84C18.29 22.56 20.01 22.42 22.17 22.42H23.58V24.28H22.2C20.76 24.28 19.62 24.35 18.78 24.49C17.94 24.63 17.34 24.87 16.98 25.21C16.64 25.53 16.47 25.98 16.47 26.56C16.47 27.32 16.73 27.94 17.25 28.42C17.77 28.88 18.49 29.11 19.41 29.11C20.15 29.11 20.8 28.94 21.36 28.6C21.92 28.24 22.36 27.76 22.68 27.16C23.02 26.56 23.19 25.87 23.19 25.09V21.64C23.19 20.5 22.95 19.68 22.47 19.18C21.99 18.68 21.2 18.43 20.1 18.43C19.46 18.43 18.79 18.51 18.09 18.67C17.41 18.83 16.7 19.1 15.96 19.48C15.62 19.64 15.33 19.69 15.09 19.63C14.85 19.57 14.66 19.44 14.52 19.24C14.38 19.02 14.3 18.79 14.28 18.55C14.28 18.29 14.34 18.04 14.46 17.8C14.6 17.56 14.83 17.38 15.15 17.26C16.03 16.84 16.9 16.54 17.76 16.36C18.62 16.18 19.43 16.09 20.19 16.09C21.53 16.09 22.63 16.3 23.49 16.72C24.37 17.14 25.02 17.78 25.44 18.64C25.86 19.5 26.07 20.61 26.07 21.97V29.68C26.07 30.16 25.95 30.54 25.71 30.82C25.47 31.08 25.12 31.21 24.66 31.21C24.22 31.21 23.87 31.08 23.61 30.82C23.35 30.54 23.22 30.16 23.22 29.68V27.73H23.49C23.33 28.47 23.03 29.11 22.59 29.65C22.17 30.17 21.64 30.57 21 30.85C20.36 31.13 19.63 31.27 18.81 31.27ZM22.98 13C22.46 13 22.06 12.86 21.78 12.58C21.5 12.3 21.36 11.9 21.36 11.38C21.36 10.88 21.5 10.5 21.78 10.24C22.06 9.96 22.46 9.82 22.98 9.82C23.48 9.82 23.87 9.96 24.15 10.24C24.43 10.5 24.57 10.88 24.57 11.38C24.57 11.9 24.43 12.3 24.15 12.58C23.89 12.86 23.5 13 22.98 13ZM17.55 13C17.05 13 16.65 12.86 16.35 12.58C16.07 12.3 15.93 11.9 15.93 11.38C15.93 10.88 16.07 10.5 16.35 10.24C16.65 9.96 17.05 9.82 17.55 9.82C18.07 9.82 18.47 9.96 18.75 10.24C19.03 10.5 19.17 10.88 19.17 11.38C19.17 11.9 19.03 12.3 18.75 12.58C18.47 12.86 18.07 13 17.55 13Z" fill="#C1CBD1"/>
</svg>
