<svg width="40" height="40" viewBox="0 0 40 40" fill="none" xmlns="http://www.w3.org/2000/svg">
<rect x="1.5" y="1.5" width="37" height="37" rx="8.5" fill="#131F24" stroke="#37464F" stroke-width="3"/>
<path d="M11.34 33.21C10.94 33.21 10.62 33.12 10.38 32.94C10.14 32.76 10 32.52 9.96 32.22C9.92 31.92 9.98 31.58 10.14 31.2L18.27 12.96C18.47 12.48 18.72 12.14 19.02 11.94C19.34 11.74 19.69 11.64 20.07 11.64C20.43 11.64 20.76 11.74 21.06 11.94C21.38 12.14 21.64 12.48 21.84 12.96L29.97 31.2C30.15 31.58 30.22 31.93 30.18 32.25C30.14 32.55 30.01 32.79 29.79 32.97C29.57 33.13 29.26 33.21 28.86 33.21C28.42 33.21 28.07 33.1 27.81 32.88C27.55 32.66 27.32 32.32 27.12 31.86L25.02 27L26.43 27.84H13.65L15.03 27L12.96 31.86C12.76 32.34 12.54 32.69 12.3 32.91C12.06 33.11 11.74 33.21 11.34 33.21ZM20.01 15.3L15.48 26.04L14.73 25.32H25.32L24.63 26.04L20.07 15.3H20.01ZM22.8 9.15C22.28 9.15 21.88 9.01 21.6 8.73C21.32 8.45 21.18 8.05 21.18 7.53C21.18 7.03 21.32 6.65 21.6 6.39C21.88 6.11 22.28 5.97 22.8 5.97C23.3 5.97 23.69 6.11 23.97 6.39C24.25 6.65 24.39 7.03 24.39 7.53C24.39 8.05 24.25 8.45 23.97 8.73C23.71 9.01 23.32 9.15 22.8 9.15ZM17.37 9.15C16.87 9.15 16.47 9.01 16.17 8.73C15.89 8.45 15.75 8.05 15.75 7.53C15.75 7.03 15.89 6.65 16.17 6.39C16.47 6.11 16.87 5.97 17.37 5.97C17.89 5.97 18.29 6.11 18.57 6.39C18.85 6.65 18.99 7.03 18.99 7.53C18.99 8.05 18.85 8.45 18.57 8.73C18.29 9.01 17.89 9.15 17.37 9.15Z" fill="#C1CBD1"/>
</svg>
