<svg width="40" height="40" viewBox="0 0 40 40" fill="none" xmlns="http://www.w3.org/2000/svg">
<rect x="1.5" y="1.5" width="37" height="37" rx="8.5" fill="#131F24" stroke="#37464F" stroke-width="3"/>
<path d="M20.49 31.27C19.01 31.27 17.73 30.96 16.65 30.34C15.59 29.72 14.76 28.84 14.16 27.7C13.56 26.56 13.26 25.22 13.26 23.68C13.26 22.5 13.43 21.45 13.77 20.53C14.11 19.61 14.59 18.82 15.21 18.16C15.85 17.48 16.61 16.97 17.49 16.63C18.39 16.27 19.39 16.09 20.49 16.09C21.95 16.09 23.21 16.4 24.27 17.02C25.35 17.64 26.19 18.52 26.79 19.66C27.39 20.78 27.69 22.12 27.69 23.68C27.69 24.84 27.52 25.89 27.18 26.83C26.84 27.77 26.35 28.57 25.71 29.23C25.09 29.89 24.33 30.4 23.43 30.76C22.55 31.1 21.57 31.27 20.49 31.27ZM20.49 28.93C21.31 28.93 22.03 28.73 22.65 28.33C23.27 27.93 23.75 27.34 24.09 26.56C24.45 25.78 24.63 24.82 24.63 23.68C24.63 21.96 24.25 20.66 23.49 19.78C22.73 18.9 21.73 18.46 20.49 18.46C19.65 18.46 18.92 18.66 18.3 19.06C17.68 19.44 17.19 20.02 16.83 20.8C16.49 21.58 16.32 22.54 16.32 23.68C16.32 25.38 16.7 26.68 17.46 27.58C18.22 28.48 19.23 28.93 20.49 28.93ZM23.22 13C22.7 13 22.3 12.86 22.02 12.58C21.74 12.3 21.6 11.9 21.6 11.38C21.6 10.88 21.74 10.5 22.02 10.24C22.3 9.96 22.7 9.82 23.22 9.82C23.72 9.82 24.11 9.96 24.39 10.24C24.67 10.5 24.81 10.88 24.81 11.38C24.81 11.9 24.67 12.3 24.39 12.58C24.13 12.86 23.74 13 23.22 13ZM17.79 13C17.29 13 16.89 12.86 16.59 12.58C16.31 12.3 16.17 11.9 16.17 11.38C16.17 10.88 16.31 10.5 16.59 10.24C16.89 9.96 17.29 9.82 17.79 9.82C18.31 9.82 18.71 9.96 18.99 10.24C19.27 10.5 19.41 10.88 19.41 11.38C19.41 11.9 19.27 12.3 18.99 12.58C18.71 12.86 18.31 13 17.79 13Z" fill="#C1CBD1"/>
</svg>
