<svg width="40" height="40" viewBox="0 0 40 40" fill="none" xmlns="http://www.w3.org/2000/svg">
<rect x="1.5" y="1.5" width="37" height="37" rx="8.5" fill="#131F24" stroke="#37464F" stroke-width="3"/>
<path d="M20.64 33.27C18.64 33.27 16.89 32.83 15.39 31.95C13.91 31.05 12.76 29.79 11.94 28.17C11.14 26.53 10.74 24.61 10.74 22.41C10.74 20.75 10.97 19.26 11.43 17.94C11.89 16.6 12.55 15.46 13.41 14.52C14.27 13.56 15.31 12.83 16.53 12.33C17.75 11.83 19.12 11.58 20.64 11.58C22.66 11.58 24.41 12.02 25.89 12.9C27.37 13.78 28.51 15.03 29.31 16.65C30.13 18.27 30.54 20.18 30.54 22.38C30.54 24.04 30.31 25.54 29.85 26.88C29.39 28.22 28.72 29.37 27.84 30.33C26.98 31.29 25.94 32.02 24.72 32.52C23.5 33.02 22.14 33.27 20.64 33.27ZM20.64 30.57C22.04 30.57 23.23 30.25 24.21 29.61C25.21 28.97 25.97 28.04 26.49 26.82C27.03 25.6 27.3 24.13 27.3 22.41C27.3 19.83 26.72 17.83 25.56 16.41C24.4 14.99 22.76 14.28 20.64 14.28C19.24 14.28 18.04 14.6 17.04 15.24C16.06 15.86 15.3 16.78 14.76 18C14.24 19.22 13.98 20.69 13.98 22.41C13.98 24.97 14.56 26.97 15.72 28.41C16.9 29.85 18.54 30.57 20.64 30.57ZM23.34 9.15C22.82 9.15 22.42 9.01 22.14 8.73C21.86 8.45 21.72 8.05 21.72 7.53C21.72 7.03 21.86 6.65 22.14 6.39C22.42 6.11 22.82 5.97 23.34 5.97C23.84 5.97 24.23 6.11 24.51 6.39C24.79 6.65 24.93 7.03 24.93 7.53C24.93 8.05 24.79 8.45 24.51 8.73C24.25 9.01 23.86 9.15 23.34 9.15ZM17.91 9.15C17.41 9.15 17.01 9.01 16.71 8.73C16.43 8.45 16.29 8.05 16.29 7.53C16.29 7.03 16.43 6.65 16.71 6.39C17.01 6.11 17.41 5.97 17.91 5.97C18.43 5.97 18.83 6.11 19.11 6.39C19.39 6.65 19.53 7.03 19.53 7.53C19.53 8.05 19.39 8.45 19.11 8.73C18.83 9.01 18.43 9.15 17.91 9.15Z" fill="#C1CBD1"/>
</svg>
