<svg width="40" height="40" viewBox="0 0 40 40" fill="none" xmlns="http://www.w3.org/2000/svg">
<rect x="1.5" y="1.5" width="37" height="37" rx="8.5" fill="#131F24" stroke="#37464F" stroke-width="3"/>
<path d="M19.35 31.27C18.17 31.27 17.18 31.05 16.38 30.61C15.6 30.17 15.01 29.52 14.61 28.66C14.23 27.78 14.04 26.68 14.04 25.36V17.68C14.04 17.16 14.17 16.78 14.43 16.54C14.69 16.28 15.06 16.15 15.54 16.15C16.02 16.15 16.39 16.28 16.65 16.54C16.93 16.78 17.07 17.16 17.07 17.68V25.39C17.07 26.57 17.31 27.44 17.79 28C18.27 28.56 19.03 28.84 20.07 28.84C21.21 28.84 22.13 28.46 22.83 27.7C23.55 26.92 23.91 25.9 23.91 24.64V17.68C23.91 17.16 24.04 16.78 24.3 16.54C24.56 16.28 24.94 16.15 25.44 16.15C25.92 16.15 26.29 16.28 26.55 16.54C26.81 16.78 26.94 17.16 26.94 17.68V29.68C26.94 30.7 26.45 31.21 25.47 31.21C25.01 31.21 24.65 31.08 24.39 30.82C24.13 30.54 24 30.16 24 29.68V27.13L24.39 27.79C23.99 28.91 23.35 29.77 22.47 30.37C21.59 30.97 20.55 31.27 19.35 31.27ZM23.25 12.97C22.73 12.97 22.33 12.83 22.05 12.55C21.77 12.27 21.63 11.87 21.63 11.35C21.63 10.85 21.77 10.47 22.05 10.21C22.33 9.93 22.73 9.79 23.25 9.79C23.75 9.79 24.14 9.93 24.42 10.21C24.7 10.47 24.84 10.85 24.84 11.35C24.84 11.87 24.7 12.27 24.42 12.55C24.16 12.83 23.77 12.97 23.25 12.97ZM17.82 12.97C17.32 12.97 16.92 12.83 16.62 12.55C16.34 12.27 16.2 11.87 16.2 11.35C16.2 10.85 16.34 10.47 16.62 10.21C16.92 9.93 17.32 9.79 17.82 9.79C18.34 9.79 18.74 9.93 19.02 10.21C19.3 10.47 19.44 10.85 19.44 11.35C19.44 11.87 19.3 12.27 19.02 12.55C18.74 12.83 18.34 12.97 17.82 12.97Z" fill="#C1CBD1"/>
</svg>
