<svg width="40" height="40" viewBox="0 0 40 40" fill="none" xmlns="http://www.w3.org/2000/svg">
<rect x="1.5" y="1.5" width="37" height="37" rx="8.5" fill="#131F24" stroke="#37464F" stroke-width="3"/>
<path d="M20.01 33.27C18.59 33.27 17.34 33.09 16.26 32.73C15.18 32.35 14.27 31.79 13.53 31.05C12.81 30.31 12.26 29.39 11.88 28.29C11.5 27.19 11.31 25.92 11.31 24.48V13.2C11.31 12.68 11.44 12.29 11.7 12.03C11.98 11.77 12.37 11.64 12.87 11.64C13.37 11.64 13.75 11.77 14.01 12.03C14.29 12.29 14.43 12.68 14.43 13.2V24.42C14.43 26.48 14.9 28.02 15.84 29.04C16.8 30.06 18.19 30.57 20.01 30.57C21.85 30.57 23.24 30.06 24.18 29.04C25.12 28.02 25.59 26.48 25.59 24.42V13.2C25.59 12.68 25.72 12.29 25.98 12.03C26.26 11.77 26.64 11.64 27.12 11.64C27.62 11.64 28 11.77 28.26 12.03C28.52 12.29 28.65 12.68 28.65 13.2V24.48C28.65 26.4 28.32 28.02 27.66 29.34C27.02 30.64 26.06 31.62 24.78 32.28C23.5 32.94 21.91 33.27 20.01 33.27ZM22.74 9.15C22.22 9.15 21.82 9.01 21.54 8.73C21.26 8.45 21.12 8.05 21.12 7.53C21.12 7.03 21.26 6.65 21.54 6.39C21.82 6.11 22.22 5.97 22.74 5.97C23.24 5.97 23.63 6.11 23.91 6.39C24.19 6.65 24.33 7.03 24.33 7.53C24.33 8.05 24.19 8.45 23.91 8.73C23.65 9.01 23.26 9.15 22.74 9.15ZM17.31 9.15C16.81 9.15 16.41 9.01 16.11 8.73C15.83 8.45 15.69 8.05 15.69 7.53C15.69 7.03 15.83 6.65 16.11 6.39C16.41 6.11 16.81 5.97 17.31 5.97C17.83 5.97 18.23 6.11 18.51 6.39C18.79 6.65 18.93 7.03 18.93 7.53C18.93 8.05 18.79 8.45 18.51 8.73C18.23 9.01 17.83 9.15 17.31 9.15Z" fill="#C1CBD1"/>
</svg>
